<svg width="60" height="60" viewBox="0 0 40 40" fill="none" xmlns="http://www.w3.org/2000/svg"> 
    <path d="M20.014 0C3.58896 0.154219 -2.91104 21.063 10.4859 30.5221C10.2947 30.6645 10.1704 30.8916 10.1704 31.1484V39.2188C10.1704 39.6502 10.5201 40 10.9516 40H14.904C15.3354 40 15.6852 39.6502 15.6852 39.2188V38.7685H16.7356C16.9794 38.7685 17.2137 38.8476 17.3922 38.9886C17.9359 39.4226 18.8514 39.9399 20.125 39.9399H23.6283C25.2029 39.9399 26.4945 38.7623 26.641 37.1971L27.1979 33.0916C27.1996 33.0791 27.2011 33.0665 27.2022 33.054C27.2354 32.6695 27.1969 32.2917 27.0904 31.9328C43.1894 24.142 37.9206 0.279297 20.014 0ZM11.7329 38.4375V31.9295H14.1226L14.1227 38.4375H11.7329ZM25.6469 32.9021L25.0904 37.0041C25.0887 37.0165 25.0873 37.0289 25.0862 37.0414C25.0197 37.803 24.393 38.3775 23.6283 38.3775H20.125C19.3036 38.3775 18.7156 38.0458 18.3639 37.7651C17.5408 37.1009 16.6692 37.2082 15.6851 37.2061V31.8319C16.2761 31.6668 16.7118 31.2278 17.0294 30.7209C17.208 30.439 19.9541 26.0855 19.9541 26.0855L20.5017 26.3676C21.1448 26.7082 21.3783 27.473 21.0495 28.1172L20.2875 29.4778C19.8406 30.2863 20.4404 31.3276 21.3776 31.3276H24.1878C25.0277 31.3276 25.7101 32.0647 25.6469 32.9021ZM32.5552 25.3145C30.9709 27.6294 28.8047 29.4452 26.2664 30.5925C25.709 30.0647 24.9552 29.765 24.1876 29.765H21.9179L22.0172 29.5876C31.5789 28.2602 36.3517 16.4626 30.3438 8.86633C28.6575 6.65992 26.2665 5.0243 23.6113 4.26086C23.1963 4.14156 22.7638 4.38102 22.6446 4.79578C22.5254 5.21047 22.7648 5.64328 23.1795 5.7625C25.5148 6.43406 27.6182 7.87328 29.1024 9.81516C34.1404 16.1653 30.5668 26.0798 22.7522 27.8499C22.8937 26.6948 22.2783 25.538 21.2478 24.9945L20.0344 24.3675C19.6583 24.173 19.2005 24.3244 18.9901 24.6845L17.0327 27.7865C5.92365 24.619 5.7681 9.15633 16.8147 5.7725C17.229 5.65195 17.4671 5.21844 17.3465 4.80406C17.226 4.38977 16.7924 4.15148 16.3781 4.27219C4.04826 8.03297 3.91849 25.1962 16.1652 29.1612L15.6212 30.0232C15.4148 30.2921 15.2535 30.3622 14.8976 30.367H13.2871C-0.983697 23.0693 3.9638 1.79969 20.0142 1.5625C32.0368 1.40547 39.4694 15.4949 32.5552 25.3145Z" fill="white"></path> 
    <path d="M20.0141 8.32776C19.7524 8.32776 19.5082 8.4587 19.3634 8.67659L16.953 12.3033L12.7588 13.4751C12.231 13.6224 12.0154 14.2821 12.3567 14.7127L15.061 18.1259L14.8794 22.4767C14.8566 23.0242 15.4169 23.4335 15.9322 23.2416L20.0141 21.7244L24.0959 23.2416C24.6107 23.4333 25.1715 23.0244 25.1487 22.4767L24.9671 18.1259L27.6714 14.7127C28.0126 14.282 27.797 13.6224 27.2693 13.4751L23.0752 12.3033L20.6648 8.67659C20.5198 8.4587 20.2757 8.32776 20.0141 8.32776ZM22.3751 13.7299L25.7167 14.6636L23.562 17.3831C23.4457 17.5299 23.386 17.7137 23.3938 17.9009L23.5385 21.3675L20.2863 20.1587C20.1106 20.0934 19.9174 20.0934 19.7419 20.1587L16.4897 21.3675L16.6344 17.9009C16.6422 17.7137 16.5825 17.5299 16.4662 17.3831L14.3115 14.6636L17.6531 13.7299C17.8336 13.6796 17.9898 13.566 18.0935 13.4099L20.0141 10.5203L21.9348 13.4099C22.0384 13.566 22.1947 13.6796 22.3751 13.7299Z" fill="white"></path> 
    <path d="M19.2929 4.83591C19.5576 5.47184 20.4911 5.46263 20.7414 4.81974C21.0018 4.15083 20.254 3.50395 19.6292 3.85778C19.291 4.04927 19.143 4.47645 19.2929 4.83591Z" fill="white"></path> 
</svg>
