<?xml version="1.0"?>
<svg xmlns="http://www.w3.org/2000/svg" data-name="Layer 1" height="128" id="Layer_1" viewBox="0 0 128 128" width="128"><title/><path d="M9.00006,114.00391a2.00006,2.00006,0,0,0,0,4.00012h3.5a4.00465,4.00465,0,0,0,4,4.00012h10a3.994,3.994,0,0,0,3.75165-2.65826h2.5379a1.95288,1.95288,0,0,1,.62158.10156L58.023,127.69189a6.03018,6.03018,0,0,0,4.688-.3736l41.99219-21.97876A7.09725,7.09725,0,0,0,107.8941,96.204a7.028,7.028,0,0,0-9.26221-3.60217L72.22638,102.8197a7.00209,7.00209,0,0,0-6.22632-3.81635H56.51715L43.23492,91.64374a5.87307,5.87307,0,0,0-2.66016-.64062H30.358a3.9963,3.9963,0,0,0-3.858-3.00012h-10a4.00466,4.00466,0,0,0-4,4.00018h-3.5a2.00006,2.00006,0,0,0,0,4.00012h3.5v18.00061Zm21.5-19.00067H40.57477a1.81669,1.81669,0,0,1,.78027.1709l13.67578,7.57892a2.00152,2.00152,0,0,0,.96924.25049h10a3.00009,3.00009,0,0,1,0,6.00018h-17.5a2.00006,2.00006,0,0,0,0,4.00012h17.5A7.007,7.007,0,0,0,72.94678,106.83l27.17487-10.51569c.03369-.01318.06689-.02686.09961-.0415a2.99477,2.99477,0,0,1,2.31787-.06738,3.02851,3.02851,0,0,1,1.69678,1.61676,3.08692,3.08692,0,0,1-1.3877,3.97327L60.856,123.77423a2.01213,2.01213,0,0,1-1.5625.12451L34.6817,115.65436a5.95173,5.95173,0,0,0-1.89209-.30859H30.50006Zm-14-3.00006h10L26.5025,118.004H16.50006Z"/><path d="M31,57.002a8.00687,8.00687,0,0,0,7.73669-6.00024h4.34009a28.78206,28.78206,0,0,0,2.8739,10.73077l-2.0235,1.16833a8.02508,8.02508,0,0,0-5.70575-2.39941h-.00018a8.0039,8.0039,0,1,0,7.70392,5.8645l2.02789-1.17084a29.23821,29.23821,0,0,0,7.85413,7.85443l-1.16827,2.02362a7.97282,7.97282,0,0,0-2.13507-.29626h-.00012a8.01077,8.01077,0,1,0,5.59662,2.30048l1.16937-2.02539a28.78066,28.78066,0,0,0,10.73035,2.874v4.34015a7.99994,7.99994,0,1,0,4,0V77.926a28.781,28.781,0,0,0,10.73035-2.874l1.16785,2.02283A7.98291,7.98291,0,0,0,84.57178,86.778a8.00007,8.00007,0,1,0,6.92468-12.0011h-.00018a7.97772,7.97772,0,0,0-2.13507.29626L88.19287,73.0495a29.23843,29.23843,0,0,0,7.85419-7.85443l2.02777,1.17078a7.98961,7.98961,0,1,0,7.704-5.86444h-.00018a8.02592,8.02592,0,0,0-5.70575,2.39935l-2.0235-1.16833a28.78206,28.78206,0,0,0,2.8739-10.73071h4.34a8.00025,8.00025,0,1,0,0-4.00012h-4.34a28.78268,28.78268,0,0,0-2.8739-10.73077l2.02344-1.16827a7.99694,7.99694,0,1,0,5.69855-13.60248h-.00018a7.99245,7.99245,0,0,0-7.69641,10.13745l-2.02777,1.17072a29.23821,29.23821,0,0,0-7.85419-7.85437l1.16833-2.02362A7.99837,7.99837,0,1,0,91.50385,7.22455h-.00012a8.001,8.001,0,0,0-7.73114,10.07153,7.94432,7.94432,0,0,0,2.12567,3.63251l-1.16785,2.02283a28.77981,28.77981,0,0,0-10.73035-2.874V15.73724a8.00007,8.00007,0,1,0-4,0v4.34015a28.77981,28.77981,0,0,0-10.73035,2.874L58.10034,20.926A7.994,7.994,0,0,0,52.49646,7.22455h-.00018a8.001,8.001,0,1,0,2.14264,15.70563l1.16833,2.02368a29.23821,29.23821,0,0,0-7.85419,7.85437l-2.02789-1.17078a7.9925,7.9925,0,0,0-7.69629-10.13739H38.2287a8.001,8.001,0,1,0,5.69849,13.60248l2.0235,1.16833a28.78238,28.78238,0,0,0-2.8739,10.73071H38.73669A7.996,7.996,0,1,0,31,57.002Zm9.225,14.9646a4.00064,4.00064,0,1,1,1.46411-5.46429A3.98185,3.98185,0,0,1,40.225,71.96655Zm62.08588-5.46429a4.00123,4.00123,0,1,1,1.46411,5.46429A3.99874,3.99874,0,0,1,102.31085,66.50226ZM113,45.00153a4.00015,4.00015,0,1,1-4,4.00012A4.00007,4.00007,0,0,1,113,45.00153Zm-9.225-18.96478a4.00068,4.00068,0,1,1-1.46411,5.46429A3.98216,3.98216,0,0,1,103.775,26.03674ZM41.68909,31.501A4.00113,4.00113,0,1,1,40.225,26.03674,3.9985,3.9985,0,0,1,41.68909,31.501Zm14.275,53.27679A4.00113,4.00113,0,1,1,54.5,79.31354,3.99857,3.99857,0,0,1,55.96411,84.77783ZM76,90.00305a4,4,0,1,1-4-4.00012A4.00012,4.00012,0,0,1,76,90.00305ZM89.5,79.31354a4.00068,4.00068,0,1,1-1.46411,5.46429A3.98278,3.98278,0,0,1,89.5,79.31354ZM88.03589,13.2254A4.00123,4.00123,0,1,1,89.5,18.6897,3.99877,3.99877,0,0,1,88.03589,13.2254ZM68,8.00024a4,4,0,1,1,4,4.00018A4,4,0,0,1,68,8.00024ZM54.5,18.6897a4.00064,4.00064,0,1,1,1.46411-5.46429A3.98223,3.98223,0,0,1,54.5,18.6897Zm17.50006,5.3111a25.00085,25.00085,0,1,1-25,25.00085A25.02863,25.02863,0,0,1,72.00006,24.00079ZM31,45.00153a4.00015,4.00015,0,1,1-4,4.00012A4.00007,4.00007,0,0,1,31,45.00153Z"/><path d="M72.00006,70.00238a21.02394,21.02394,0,0,0,21-21.00073,2,2,0,1,0-4,0,17,17,0,1,1-17-17.00055,2.00006,2.00006,0,0,0,0-4.00012,21.0007,21.0007,0,0,0,0,42.0014Z"/><path d="M59.00006,49.00165a2,2,0,1,0,4,0,9,9,0,1,1,9,9.00031,2.00009,2.00009,0,0,0,0,4.00018,13.00046,13.00046,0,1,0-13-13.00049Z"/></svg>
