<?xml version="1.0" encoding="UTF-8"?>
<svg version="1.1" xmlns="http://www.w3.org/2000/svg" width="2133" height="2133">
<path d="M0 0 C0.83917969 0.63164063 1.67835937 1.26328125 2.54296875 1.9140625 C19.99683514 16.73181234 29.78698613 42.04402948 36.73046875 63.22387695 C37.51186903 65.59857026 38.31751094 67.96414488 39.125 70.33007812 C39.63686603 71.86670546 40.14733629 73.40379861 40.65625 74.94140625 C40.89363892 75.6342421 41.13102783 76.32707794 41.37561035 77.04090881 C43.74463521 84.39092749 43.7620893 90.75294395 40.32421875 97.7734375 C36.65045688 103.95055923 31.50470604 108.46576632 26.13183594 113.12646484 C22.76235563 116.08768701 19.50928673 119.16861752 16.25 122.25 C10.51185663 127.65236904 4.74064591 133.01259914 -1.078125 138.328125 C-4.20643985 141.18877655 -7.3236772 144.0610975 -10.4375 146.9375 C-10.97785889 147.43660889 -11.51821777 147.93571777 -12.07495117 148.44995117 C-13.16964892 149.46120612 -14.26429396 150.47251812 -15.35888672 151.48388672 C-18.07177586 153.99014104 -20.78594859 156.49500446 -23.5 159 C-24.58333957 159.99999324 -25.66667291 160.99999324 -26.75 162 C-80.375 211.5 -134 261 -254.25 372 C-254.7864917 372.4952417 -255.3229834 372.9904834 -255.87573242 373.50073242 C-256.95654944 374.49837218 -258.03744109 375.49593108 -259.1184082 376.4934082 C-261.8658661 379.02885428 -264.61191901 381.56579382 -267.35546875 384.10546875 C-277.34763385 393.35223292 -287.33482198 402.52391985 -298 411 C-298.56444824 411.45294434 -299.12889648 411.90588867 -299.71044922 412.37255859 C-319.46301772 428.15444146 -340.79494602 441.94458751 -363 454 C-363.82032715 454.45391113 -364.6406543 454.90782227 -365.48583984 455.37548828 C-391.7659497 469.89667641 -419.41541953 480.11399689 -448 489 C-449.06976074 489.33257813 -450.13952148 489.66515625 -451.24169922 490.0078125 C-473.09252712 496.6608333 -495.73113159 500.5631237 -518.375 503.3125 C-519.03875641 503.39381165 -519.70251282 503.47512329 -520.38638306 503.55889893 C-536.5615572 505.51020256 -552.66788294 506.15103178 -568.94555664 506.14526367 C-570.66952078 506.14826605 -572.39348426 506.151671 -574.1174469 506.15544128 C-578.75067611 506.16418181 -583.3838868 506.16661532 -588.01712346 506.16725707 C-590.93129808 506.16797395 -593.84546817 506.17012029 -596.75964165 506.17275429 C-606.98274909 506.18197912 -617.20584361 506.18609331 -627.42895508 506.18530273 C-636.8643636 506.18470467 -646.29971446 506.19521044 -655.73510844 506.2110464 C-663.90828558 506.22426057 -672.08144423 506.22948081 -680.25463194 506.22884732 C-685.10343584 506.22859611 -689.95218854 506.23123247 -694.80098152 506.24202538 C-723.18905463 506.30084447 -751.48730083 505.82274235 -779.6875 502.1875 C-780.87408203 502.04763672 -782.06066406 501.90777344 -783.28320312 501.76367188 C-813.08617598 498.06325124 -842.26698716 491.33064663 -871.52197266 484.7175293 C-908.40163846 476.39084325 -944.43763744 470.55290235 -982.375 470.6875 C-983.45473083 470.68932281 -984.53446167 470.69114563 -985.64691162 470.69302368 C-1051.57600912 470.87899712 -1115.64334632 485.08295679 -1176.5625 510.25 C-1177.73280762 510.73307617 -1178.90311523 511.21615234 -1180.10888672 511.71386719 C-1197.13982773 518.01666739 -1197.13982773 518.01666739 -1210 530 C-1213.07504756 541.27324692 -1205.7106521 551.63689442 -1200.5625 561.125 C-1199.20568405 563.64607966 -1197.85693157 566.17035021 -1196.52757263 568.70602417 C-1195.70504729 570.27322805 -1194.86690871 571.83238115 -1194.01014709 573.38113403 C-1190.70723421 579.64533797 -1189.32459825 585.93163516 -1190.49609375 592.98828125 C-1190.80675781 593.75527344 -1191.11742187 594.52226563 -1191.4375 595.3125 C-1191.72496094 596.09238281 -1192.01242187 596.87226562 -1192.30859375 597.67578125 C-1196.90977785 603.99842453 -1206.11452947 607.20051704 -1212.93739319 610.5990448 C-1214.01734745 611.1409347 -1215.09730171 611.68282461 -1216.20998186 612.24113542 C-1219.18697763 613.73388049 -1222.16570913 615.22305465 -1225.14526093 616.71068466 C-1228.36621305 618.31992255 -1231.58485849 619.93376243 -1234.80381775 621.54698181 C-1241.10128509 624.70207654 -1247.40092566 627.85280774 -1253.70140798 631.00187679 C-1258.82241084 633.56148549 -1263.94270318 636.12251009 -1269.06249809 638.68453407 C-1269.79208848 639.04962686 -1270.52167887 639.41471965 -1271.27337806 639.79087586 C-1272.75565413 640.53261979 -1274.23792974 641.27436466 -1275.72020488 642.01611046 C-1289.60653293 648.96470706 -1303.49545967 655.90809656 -1317.38518142 662.8499063 C-1330.08938103 669.19941968 -1342.79027967 675.55550435 -1355.48964221 681.91468581 C-1368.53816088 688.44863154 -1381.58889573 694.9781304 -1394.64204305 701.5028246 C-1401.96695893 705.16432639 -1409.29098369 708.82758428 -1416.61268806 712.49550438 C-1422.84297039 715.61659921 -1429.07533365 718.73348997 -1435.31042082 721.84497567 C-1438.49050974 723.4320741 -1441.66960669 725.02107927 -1444.84611893 726.61532593 C-1448.29070246 728.34403827 -1451.73989504 730.06341532 -1455.18959045 731.78190613 C-1456.19095396 732.28627502 -1457.19231746 732.79064391 -1458.22402531 733.31029671 C-1466.65218168 737.49167161 -1473.57954401 740.42587504 -1482.9660812 737.35725415 C-1489.22694131 734.66041819 -1491.30820505 730.98236821 -1494.13841248 724.96310425 C-1494.8760093 723.47657752 -1494.8760093 723.47657752 -1495.62850708 721.96001995 C-1496.77615275 719.64493451 -1497.91425698 717.32681402 -1499.04266429 715.00243902 C-1501.19691316 710.57881745 -1503.41175991 706.18644092 -1505.62971687 701.79449844 C-1509.3032461 694.51427401 -1512.96379866 687.22772819 -1516.61158752 679.93457031 C-1517.35544039 678.44737762 -1517.35544039 678.44737762 -1518.11432058 676.93014063 C-1519.14355938 674.87219998 -1520.17275072 672.81423561 -1521.20189703 670.75624871 C-1523.92224834 665.31741872 -1526.64487288 659.87972676 -1529.36715698 654.44186401 C-1535.60435399 641.98165546 -1541.83823969 629.51979196 -1548.07160243 617.05766507 C-1551.15651707 610.89018274 -1554.24193422 604.72295185 -1557.32740803 598.55574925 C-1567.90543269 577.41251219 -1578.48262412 556.2688586 -1589.05690861 535.12375069 C-1589.71812185 533.80154582 -1590.37933516 532.47934099 -1591.04054853 531.15713619 C-1591.70324538 529.83196313 -1592.36594217 528.50679003 -1593.0286389 527.1816169 C-1594.35787679 524.52358364 -1595.68711653 521.86555129 -1597.01635742 519.20751953 C-1597.51070193 518.21899459 -1597.51070193 518.21899459 -1598.0150332 517.21049946 C-1608.72551305 495.79317861 -1619.44091991 474.378328 -1630.15924595 452.96493284 C-1641.51454336 430.27893188 -1652.86549031 407.59075954 -1664.21142954 384.90007675 C-1665.45628468 382.4105379 -1666.70115742 379.92100785 -1667.94604301 377.43148422 C-1668.2525253 376.81857542 -1668.55900758 376.20566662 -1668.87477721 375.57418483 C-1673.80225881 365.72037122 -1678.73368273 355.86853573 -1683.666526 346.0174053 C-1688.6186605 336.12749782 -1693.5662433 326.23532152 -1698.50951768 316.34098198 C-1701.18636504 310.98337597 -1703.86515101 305.62676268 -1706.54916573 300.27274323 C-1709.00582121 295.37213907 -1711.45692264 290.46879895 -1713.90363126 285.56322144 C-1714.78951344 283.78949476 -1715.67742501 282.0167799 -1716.56756986 280.24518861 C-1717.77785197 277.83570543 -1718.98065538 275.42262819 -1720.18170261 273.00853157 C-1720.52816044 272.32321112 -1720.87461826 271.63789067 -1721.2315748 270.93180293 C-1724.90328736 263.50890517 -1728.37764018 256.3062241 -1726 248 C-1724.01074018 242.23261196 -1721.63227164 239.13670671 -1716.17701358 236.3869977 C-1715.40073731 236.0256056 -1714.62446104 235.6642135 -1713.82466125 235.29187012 C-1712.9923339 234.87947067 -1712.16000655 234.46707122 -1711.30245715 234.04217482 C-1709.49129185 233.14626616 -1707.67518638 232.26029073 -1705.85483384 231.38319969 C-1702.9717349 229.98630523 -1700.11123113 228.55104365 -1697.25423241 227.10157776 C-1690.7838959 223.81907634 -1684.29510142 220.57412582 -1677.80541992 217.33007812 C-1675.3294391 216.09085673 -1672.85374909 214.85105477 -1670.3780365 213.61129761 C-1664.40306769 210.61970243 -1658.42702198 207.63026498 -1652.45052036 204.64173335 C-1647.59376156 202.21311481 -1642.73732163 199.78385981 -1637.88109779 197.35417175 C-1624.07959963 190.44903496 -1610.27727715 183.54554989 -1596.47387274 176.64422446 C-1595.73346886 176.2740425 -1594.99306497 175.90386054 -1594.23022461 175.52246094 C-1593.48890808 175.15182311 -1592.74759155 174.78118529 -1591.98381088 174.39931601 C-1579.92736583 168.37129742 -1567.87292985 162.33927308 -1555.81937929 156.3054691 C-1543.41046325 150.0938326 -1531.00006103 143.88517452 -1518.5880993 137.67962599 C-1511.63212348 134.20180393 -1504.67676668 130.72275695 -1497.72301292 127.24049377 C-1491.81534927 124.28211449 -1485.90631283 121.32649986 -1479.99547013 118.37447709 C-1476.98200435 116.86937788 -1473.96942636 115.36256959 -1470.95812988 113.85313034 C-1467.69410909 112.21727613 -1464.42767121 110.58635273 -1461.16056824 108.95666504 C-1460.21048659 108.47905243 -1459.26040494 108.00143983 -1458.28153294 107.50935411 C-1446.22472608 101.5125247 -1446.22472608 101.5125247 -1440.125 102.0625 C-1438.95324219 102.14177734 -1438.95324219 102.14177734 -1437.7578125 102.22265625 C-1433.01733228 103.55885393 -1428.60448412 105.84080121 -1425.61993408 109.85719299 C-1424.42732468 112.02804178 -1423.3864652 114.221769 -1422.37890625 116.484375 C-1421.98984604 117.29940491 -1421.60078583 118.11443481 -1421.19993591 118.9541626 C-1419.96558416 121.54312841 -1418.76115414 124.14433522 -1417.5625 126.75 C-1410.97359634 143.03290899 -1410.97359634 143.03290899 -1399 155 C-1389.06885213 157.48422128 -1380.53146425 153.34567305 -1371.875 148.8125 C-1371.20448608 148.47076752 -1370.53397217 148.12903503 -1369.84313965 147.77694702 C-1352.06871178 138.67001268 -1335.81577856 127.12380283 -1319.42208862 115.78430176 C-1309.30427518 108.79845196 -1299.03299743 102.05172429 -1288.75 95.3125 C-1285.1018935 92.91814285 -1281.45489346 90.52210766 -1277.80859375 88.125 C-1276.91470444 87.53746948 -1276.02081512 86.94993896 -1275.09983826 86.34460449 C-1268.76638334 82.17635841 -1262.45744177 77.9726578 -1256.16015625 73.75 C-1255.28259674 73.16212204 -1254.40503723 72.57424408 -1253.50088501 71.96855164 C-1249.37052223 69.20094724 -1245.24343815 66.4286857 -1241.12207031 63.64770508 C-1191.85209999 30.52652521 -1137.15251125 9.54034193 -1078 3 C-1076.87100784 2.87117432 -1076.87100784 2.87117432 -1075.71920776 2.73974609 C-1067.59944434 1.89686996 -1059.49797329 1.818295 -1051.34375 1.796875 C-1050.60422592 1.79404762 -1049.86470184 1.79122025 -1049.10276794 1.78830719 C-1045.17479105 1.77339711 -1041.24684999 1.76412089 -1037.31884766 1.75976562 C-1034.1348095 1.75541706 -1030.95104784 1.74165558 -1027.76708984 1.71875 C-970.14915775 1.3128518 -916.65175665 13.51236135 -864.4765625 38.05859375 C-851.51229375 44.15461507 -838.68385497 49.7336138 -825 54 C-824.18321777 54.25974609 -823.36643555 54.51949219 -822.52490234 54.78710938 C-812.10029905 58.0682163 -801.5979905 60.64198084 -790.875 62.75 C-789.87581543 62.94867676 -788.87663086 63.14735352 -787.84716797 63.35205078 C-770.92138224 66.52207035 -754.11813172 67.29496129 -736.93676758 67.27124023 C-734.79559127 67.27564006 -732.65441667 67.28094671 -730.51324463 67.28707886 C-725.94095125 67.29848324 -721.36870361 67.30403118 -716.79639626 67.30496025 C-709.5421755 67.30692119 -702.28804769 67.32508437 -695.03385925 67.34571838 C-677.01848922 67.394633 -659.00309422 67.42572018 -640.9876709 67.44702148 C-626.9722925 67.46361654 -612.95699503 67.48662161 -598.9416706 67.53004223 C-591.7553706 67.55160975 -584.56922517 67.55989626 -577.38289511 67.55764949 C-572.88246186 67.55933604 -568.38212661 67.57350375 -563.88172913 67.59086227 C-561.82289034 67.59638209 -559.76403053 67.59702246 -557.70519066 67.59192467 C-512.75870083 67.49245152 -467.64113868 79.36023301 -434.6015625 111.3984375 C-421.89683716 124.10316284 -413.44989759 138.53174871 -405.34765625 154.4453125 C-400.60932174 163.89900167 -400.60932174 163.89900167 -393 171 C-388.70715746 172.24927229 -385.30225835 172.20916671 -381 171 C-376.82610042 168.14447698 -373.51903554 164.61004508 -370 161 C-368.16874061 159.45165989 -366.31472005 157.92978447 -364.4375 156.4375 C-360.86171531 153.55151207 -357.39598682 150.59555196 -354 147.5 C-349.70008209 143.58108748 -345.24080453 139.90829131 -340.71875 136.25 C-338.07852271 134.06498431 -335.5327028 131.80828609 -333 129.5 C-328.70008209 125.58108748 -324.24080453 121.90829131 -319.71875 118.25 C-317.07852271 116.06498431 -314.5327028 113.80828609 -312 111.5 C-307.70008209 107.58108748 -303.24080453 103.90829131 -298.71875 100.25 C-296.07852271 98.06498431 -293.5327028 95.80828609 -291 93.5 C-286.70008209 89.58108748 -282.24080453 85.90829131 -277.71875 82.25 C-275.07852271 80.06498431 -272.5327028 77.80828609 -270 75.5 C-265.70008209 71.58108748 -261.24080453 67.90829131 -256.71875 64.25 C-254.07852271 62.06498431 -251.5327028 59.80828609 -249 57.5 C-244.76934844 53.64851061 -240.39958151 50.01958883 -235.94921875 46.42578125 C-233.89955187 44.7398963 -231.88741919 43.0426861 -229.89453125 41.29296875 C-166.06499647 -14.71973308 -75.74693478 -63.99703376 0 0 Z M-199 66 C-200.1455846 66.98075936 -201.29142127 67.96122436 -202.4375 68.94140625 C-205.37217006 71.45261308 -208.30353138 73.96764729 -211.23388672 76.48388672 C-214.15442275 78.99100985 -217.07732311 81.49537328 -220 84 C-221.16667816 84.99998659 -222.33334482 85.9999866 -223.5 87 C-267.83333333 125 -312.16666667 163 -356.5 201 C-357.0777417 201.4952417 -357.6554834 201.9904834 -358.25073242 202.50073242 C-359.41481977 203.49845195 -360.57904456 204.49601114 -361.7434082 205.4934082 C-364.70069887 208.02698743 -367.65538369 210.56350137 -370.60546875 213.10546875 C-399.78637535 238.23369175 -399.78637535 238.23369175 -411.75146294 238.26171303 C-412.88157921 238.26917852 -414.01169548 238.27664401 -415.1760577 238.28433573 C-416.40757505 238.282401 -417.6390924 238.28046626 -418.90792847 238.2784729 C-420.22387532 238.2842653 -421.53982218 238.2900577 -422.89564621 238.29602563 C-426.54201097 238.31181055 -430.18829864 238.31525548 -433.83469343 238.31667423 C-437.76920734 238.32037091 -441.70367909 238.33552774 -445.63816833 238.34928894 C-452.45286492 238.37155716 -459.26754649 238.38657308 -466.08227158 238.39665604 C-475.93520109 238.41124477 -485.78807833 238.43678215 -495.64097716 238.46498732 C-511.62684853 238.51045177 -527.61272743 238.54706802 -543.59863281 238.578125 C-559.12696657 238.60831196 -574.65528192 238.64266291 -590.18359375 238.68261719 C-591.61946761 238.68630951 -591.61946761 238.68630951 -593.08434902 238.69007643 C-597.88661227 238.70245106 -602.68887529 238.71490758 -607.49113822 238.72740483 C-647.32740064 238.83096744 -687.16368454 238.91962693 -727 239 C-727 226.79 -727 214.58 -727 202 C-721.69634872 202.03330917 -721.69634872 202.03330917 -716.28555298 202.06729126 C-683.84746189 202.26636262 -651.40945583 202.41560946 -618.97088853 202.51065329 C-614.71773309 202.52316007 -610.46457908 202.53610332 -606.21142578 202.54931641 C-604.94135854 202.55325106 -604.94135854 202.55325106 -603.64563338 202.55726521 C-589.94312976 202.60075586 -576.2410465 202.67958856 -562.53879209 202.77152796 C-548.4746357 202.86510724 -534.41069916 202.92060112 -520.34624422 202.94088495 C-511.67033129 202.95459349 -502.99560654 202.99785625 -494.32005946 203.07916467 C-488.36750591 203.13210443 -482.41556483 203.14798361 -476.46279307 203.13501377 C-473.02993817 203.12861978 -469.59915608 203.13828001 -466.16667175 203.19205475 C-450.06573236 204.13410403 -450.06573236 204.13410403 -436.3699646 197.24935913 C-433.13319322 193.09974827 -431.62866062 189.39551598 -432.14453125 184.1171875 C-434.03112487 177.24275047 -437.48895874 171.16063746 -441 165 C-441.515625 164.0409375 -442.03125 163.081875 -442.5625 162.09375 C-447.87642291 152.90509163 -455.55990204 145.47319102 -463 138 C-463.53850586 137.45746582 -464.07701172 136.91493164 -464.63183594 136.35595703 C-487.8730647 113.24193397 -516.06301385 105.68469945 -548.06567383 105.72875977 C-550.18460794 105.72436583 -552.30354032 105.71906126 -554.42247009 105.71292114 C-558.96977097 105.70146348 -563.51702552 105.69596476 -568.06434059 105.69503975 C-575.28631879 105.69308591 -582.5082027 105.67495612 -589.73014832 105.65428162 C-607.68247884 105.60525171 -625.6348351 105.57435506 -643.58721924 105.55297852 C-657.51954133 105.53635648 -671.45178236 105.51324156 -685.38405055 105.46995777 C-691.37140999 105.45193822 -697.35865947 105.43954061 -703.34604836 105.44125557 C-770.98125301 105.45489705 -831.28653054 94.98464198 -892.67163086 65.31176758 C-934.98554461 44.88023011 -980.33289094 38.80729961 -1026.87524414 38.81469727 C-1029.56737043 38.81477809 -1032.25932494 38.80789363 -1034.95141602 38.79418945 C-1103.16444278 38.47264657 -1162.22606896 55.6146492 -1218.76585388 93.81402588 C-1224.15405447 97.44672975 -1229.57623411 101.02630223 -1235.0078125 104.59375 C-1235.892341 105.17472946 -1236.77686951 105.75570892 -1237.6882019 106.35429382 C-1239.52355097 107.55954365 -1241.35895014 108.76471718 -1243.19439697 109.96981812 C-1261.28431428 121.8510296 -1279.27780735 133.86759359 -1297.1875 146.01879883 C-1301.29842713 148.80668156 -1305.41696845 151.58293057 -1309.54229736 154.34945679 C-1311.20004222 155.46276459 -1312.85555636 156.57940024 -1314.50897217 157.6991272 C-1326.88060547 166.06065209 -1339.42230411 173.00487884 -1352.96337891 179.26928711 C-1367.5237682 185.6476349 -1367.5237682 185.6476349 -1378 197 C-1379.26173522 205.66365446 -1376.79877403 211.98058093 -1372.90420532 219.5816803 C-1372.08174413 221.25128418 -1372.08174413 221.25128418 -1371.24266756 222.95461744 C-1369.7270393 226.02006247 -1368.19245669 229.07452394 -1366.64874387 232.12582457 C-1364.9844071 235.42744041 -1363.34555966 238.74168166 -1361.70333862 242.05433655 C-1358.48601658 248.53395312 -1355.245161 255.00151627 -1351.99569388 261.46506197 C-1349.35340317 266.72201865 -1346.71992735 271.98330383 -1344.09263229 277.24777031 C-1343.71807039 277.99829095 -1343.34350849 278.74881159 -1342.95759623 279.52207528 C-1342.1965993 281.04701399 -1341.43562469 282.57196384 -1340.67467217 284.09692471 C-1333.54372845 298.38498543 -1326.3862219 312.65960722 -1319.21930067 326.9296478 C-1313.079465 339.15612479 -1306.96156942 351.39336809 -1300.85986328 363.63891602 C-1293.7653165 377.87696354 -1286.65784765 392.10843261 -1279.52936685 406.32952493 C-1278.76807251 407.84835817 -1278.00679196 409.36719832 -1277.24552536 410.88604546 C-1276.87101349 411.63323146 -1276.49650161 412.38041747 -1276.11064089 413.15024548 C-1273.4811651 418.39844211 -1270.86080763 423.65113046 -1268.24394608 428.9056263 C-1265.05027435 435.31761957 -1261.84219536 441.72215933 -1258.61592217 448.11781461 C-1256.97229035 451.37695386 -1255.3350009 454.6388602 -1253.71511078 457.90987396 C-1251.9536868 461.46611825 -1250.16116712 465.00614953 -1248.3656311 468.54530334 C-1247.86559055 469.56700955 -1247.36555 470.58871575 -1246.8503567 471.64138275 C-1243.13788863 478.86556775 -1238.51204374 485.04071258 -1232 490 C-1223.59251282 492.43682353 -1215.99651267 488.32990429 -1208.49807739 484.76013184 C-1205.00044372 483.10130269 -1201.46637606 481.52365037 -1197.93359375 479.94140625 C-1196.83385475 479.44711624 -1196.83385475 479.44711624 -1195.7118988 478.94284058 C-1130.878873 450.03131183 -1057.8978472 434.33615709 -939.8125 435.25 C-938.74789551 435.34692139 -937.68329102 435.44384277 -936.58642578 435.54370117 C-909.04111691 438.42474665 -882.02125639 444.94423334 -855.06384277 451.06756592 C-812.55566082 460.72001076 -770.32450426 468.11632093 -726.59106445 468.17700195 C-724.57832222 468.18328318 -722.56558111 468.18993138 -720.55284119 468.19691467 C-713.98966247 468.21777844 -707.42648402 468.22830756 -700.86328125 468.23828125 C-698.58232296 468.24233686 -696.30136479 468.246454 -694.02040672 468.25063133 C-683.28506931 468.2696524 -672.5497386 468.28388402 -661.81438762 468.2922433 C-649.53009628 468.30197292 -637.24598718 468.32819307 -624.96175987 468.36874419 C-615.39918907 468.39919785 -605.8366696 468.41373987 -596.27405137 468.41702431 C-590.59560042 468.41934369 -584.91734466 468.42788569 -579.23894691 468.45348549 C-534.04037035 468.64651364 -491.30344437 464.8582892 -448 451 C-447.07622559 450.70931641 -446.15245117 450.41863281 -445.20068359 450.11914062 C-401.19690717 436.12811713 -360.14943409 412.87189516 -325 383 C-323.83597174 382.02209466 -322.67190684 381.04423293 -321.5078125 380.06640625 C-315.76169892 375.21438642 -310.14918376 370.34001962 -304.92211914 364.92260742 C-303.09646174 363.09648624 -301.21616214 361.40449472 -299.2578125 359.72265625 C-295.15901895 356.16297905 -291.19439976 352.47909944 -287.25 348.75 C-281.51185663 343.34763096 -275.74064591 337.98740086 -269.921875 332.671875 C-266.79356015 329.81122345 -263.6763228 326.9389025 -260.5625 324.0625 C-260.02214111 323.56339111 -259.48178223 323.06428223 -258.92504883 322.55004883 C-257.83035108 321.53879388 -256.73570604 320.52748188 -255.64111328 319.51611328 C-252.92822414 317.00985896 -250.21405141 314.50499554 -247.5 312 C-246.41666043 311.00000676 -245.33332709 310.00000676 -244.25 309 C-136.99999993 209.99999994 -136.99999993 209.99999994 -28.12353516 109.4987793 C-27.04490974 108.50303773 -25.96645797 107.50710802 -24.88818359 106.51098633 C-21.53738496 103.41603186 -18.18038463 100.32800772 -14.81713867 97.24658203 C-13.16898619 95.72802746 -11.53560008 94.19469512 -9.90234375 92.66015625 C-7 90 -7 90 -4.62890625 88.18359375 C-1.44124201 85.62448302 -0.19160548 83.99990144 0.58984375 79.921875 C0.98956225 71.06957251 -1.16996105 63.8957726 -5 56 C-5.46148438 55.02546875 -5.92296875 54.0509375 -6.3984375 53.046875 C-11.33512164 43.67469292 -18.56900641 36.41581502 -26 29 C-26.87011719 28.11828125 -27.74023438 27.2365625 -28.63671875 26.328125 C-46.04907848 9.63528427 -67.17220807 5.29964505 -90.51171875 5.703125 C-130.6694439 7.11847744 -169.83853343 40.92762667 -199 66 Z M-1482.81665039 160.20458984 C-1484.81096663 161.1951078 -1486.80621677 162.18374729 -1488.80232239 163.1706543 C-1494.20510488 165.84915945 -1499.59367452 168.55514748 -1504.97955251 171.26745176 C-1510.62959445 174.10829818 -1516.29053704 176.92727394 -1521.94981384 179.74966431 C-1532.06227346 184.79768759 -1542.16361403 189.86747558 -1552.26066553 194.94620819 C-1561.39440204 199.53966663 -1570.53884304 204.11117066 -1579.69165039 208.66650391 C-1591.48223755 214.53467542 -1603.26236755 220.42337178 -1615.03442192 226.32866287 C-1619.51884087 228.5776279 -1624.00717908 230.81847005 -1628.49894905 233.0527153 C-1633.79663583 235.68900074 -1639.08400187 238.34495451 -1644.36425591 241.01597595 C-1646.2964955 241.98946481 -1648.23211474 242.95628081 -1650.17140198 243.91565323 C-1665.48239794 251.08747266 -1665.48239794 251.08747266 -1677 263 C-1679.56049658 274.10469811 -1674.26907013 283.29349703 -1669.39859009 292.8334198 C-1668.57030294 294.50284003 -1667.74428874 296.17338958 -1666.92034185 297.84495622 C-1664.65977157 302.4143861 -1662.36723008 306.96709919 -1660.06890655 311.51763046 C-1657.59186725 316.43604613 -1655.14490034 321.36939555 -1652.69403076 326.30088806 C-1647.89179486 335.9515623 -1643.06176492 345.58806353 -1638.22181936 355.21987148 C-1632.5834441 366.44274698 -1626.97115276 377.67859531 -1621.35946147 388.91483025 C-1611.04095876 409.57276652 -1600.69406495 430.21637853 -1590.33454294 450.8537618 C-1580.88666175 469.67545362 -1571.46216964 488.50867309 -1562.05810547 507.35229492 C-1559.65013317 512.17726669 -1557.24213601 517.00222604 -1554.83390236 521.82706738 C-1554.53738026 522.42114427 -1554.24085817 523.01522117 -1553.93535056 523.6273004 C-1546.06646502 539.39157003 -1538.17881801 555.14644632 -1530.28554189 570.89851552 C-1529.15353231 573.15763876 -1528.02153091 575.4167661 -1526.88953781 577.6758976 C-1526.05412308 579.34308548 -1526.05412308 579.34308548 -1525.20183129 581.04395392 C-1521.28320743 588.86612832 -1517.37342012 596.69268149 -1513.46687698 604.520895 C-1508.70330107 614.06565773 -1503.92521276 623.60298926 -1499.12871595 633.13125344 C-1496.68309193 637.99032563 -1494.24384831 642.85231952 -1491.82188797 647.72323608 C-1489.60201135 652.18723992 -1487.36369955 656.64148827 -1485.11068456 661.08885447 C-1484.30142923 662.69417627 -1483.49878941 664.30285496 -1482.70370646 665.91524305 C-1475.49251576 681.1823062 -1475.49251576 681.1823062 -1462.43431437 690.87052095 C-1452.89746765 692.22098812 -1442.36893938 684.94762837 -1434.19921875 680.8112793 C-1432.2065212 679.82239006 -1430.21289367 678.83537296 -1428.21841431 677.8500824 C-1422.81966209 675.17572456 -1417.43514717 672.47382157 -1412.05337906 669.7654798 C-1406.40635358 666.92800582 -1400.74859009 664.11208544 -1395.0925293 661.29267883 C-1384.98445219 656.24927942 -1374.8876432 651.18381354 -1364.79506099 646.10951833 C-1355.66837691 641.52163532 -1346.53043678 636.95688 -1337.38378906 632.40893555 C-1326.73734431 627.11524071 -1316.09850571 621.80663121 -1305.47032261 616.47633487 C-1299.85362628 613.65944297 -1294.23418555 610.84846251 -1288.60678101 608.05301476 C-1283.31065275 605.42093218 -1278.02589193 602.76726707 -1272.74885178 600.09713173 C-1270.81899245 599.12497776 -1268.88542115 598.16014945 -1266.9478035 597.20355225 C-1250.81246908 589.70934846 -1250.81246908 589.70934846 -1239 577 C-1236.61193947 566.91598981 -1242.18332309 558.09210916 -1246.59468079 549.41381836 C-1247.42191368 547.74666806 -1248.24722708 546.07856418 -1249.07079095 544.40959835 C-1251.33295754 539.83942623 -1253.62228824 535.28334378 -1255.91643441 530.72915983 C-1258.38851597 525.80990782 -1260.83521818 520.87805277 -1263.28523254 515.94778442 C-1268.08695241 506.2954417 -1272.91237899 496.65514075 -1277.74641893 487.0189507 C-1281.67620868 479.18422361 -1285.59737815 471.34523915 -1289.51244164 463.50314331 C-1290.06988865 462.38656371 -1290.62733567 461.26998411 -1291.20167502 460.11956877 C-1292.33414564 457.8511105 -1293.46659652 455.58264238 -1294.59902789 453.31416452 C-1304.91605189 432.64964482 -1315.25786712 411.99760962 -1325.61012918 391.35073052 C-1335.05047005 372.52221737 -1344.46803292 353.68247887 -1353.86645508 334.83300781 C-1364.43394552 313.63905173 -1375.01578294 292.45234119 -1385.62036961 271.27691364 C-1386.75212647 269.01690388 -1387.88386498 266.75688493 -1389.01558495 264.49685669 C-1389.85078861 262.82899491 -1389.85078861 262.82899491 -1390.70286507 261.12743896 C-1394.61916589 253.30432119 -1398.52525453 245.47615553 -1402.42739296 237.64596558 C-1407.18704283 228.09575461 -1411.96239093 218.55359169 -1416.75778268 209.02127433 C-1419.20255362 204.16056503 -1421.64027052 199.2966599 -1424.05890656 194.42288589 C-1426.27648568 189.95477052 -1428.51438731 185.49745223 -1430.76841655 181.04761899 C-1431.57704792 179.44256827 -1432.37841436 177.83383055 -1433.17141036 176.22099769 C-1440.88053497 160.28798523 -1440.88053497 160.28798523 -1454.62916839 150.06504762 C-1464.07337925 148.73038511 -1474.72531093 156.10455252 -1482.81665039 160.20458984 Z " fill="#000000" transform="translate(1775,1346)"/>
<path d="M0 0 C0.70640625 0.05542969 1.4128125 0.11085937 2.140625 0.16796875 C8.39425194 1.71265205 12.45504647 3.8067233 16.03125 9.3203125 C17.12445626 11.18093508 18.19617796 13.05429119 19.25 14.9375 C20.47137648 17.03069518 21.69408304 19.12311471 22.91796875 21.21484375 C23.54622559 22.30265137 24.17448242 23.39045898 24.82177734 24.51123047 C27.97023115 29.90163214 31.27171485 35.19575264 34.5625 40.5 C40.52638567 50.16745289 46.43567965 59.86684976 52.32192993 69.58163452 C57.43128928 78.0126666 62.57466753 86.42172429 67.75 94.8125 C73.64962187 104.37756741 79.49917218 113.9715798 85.32275391 123.58300781 C90.43183969 132.01358126 95.57494789 140.42217883 100.75 148.8125 C106.64962187 158.37756741 112.49917218 167.9715798 118.32275391 177.58300781 C123.43183969 186.01358126 128.57494789 194.42217883 133.75 202.8125 C139.64962187 212.37756741 145.49917218 221.9715798 151.32275391 231.58300781 C156.43183969 240.01358126 161.57494789 248.42217883 166.75 256.8125 C171.9261509 265.20460264 177.07021667 273.61505083 182.18026733 282.04748535 C185.36653761 287.3046995 188.55766576 292.55896645 191.75 297.8125 C192.11301208 298.41006104 192.47602417 299.00762207 192.85003662 299.62329102 C195.02864027 303.20819226 197.21210439 306.79006046 199.40185547 310.36816406 C200.40345095 312.00679505 201.40101627 313.64788733 202.3984375 315.2890625 C205.91873714 321.03076715 209.58660103 326.51840952 213.75 331.8125 C214.32105469 332.575625 214.89210938 333.33875 215.48046875 334.125 C218.53070926 337.65771823 221.19515533 339.43761508 225.875 340.0625 C233.14483781 339.62190377 237.2229421 334.29895703 241.8125 329.19921875 C242.79403667 328.07237251 243.77346125 326.94368025 244.75 325.8125 C245.430625 325.05582031 246.11125 324.29914063 246.8125 323.51953125 C248.48674389 321.63988244 250.11912837 319.72982449 251.75 317.8125 C256.46186497 312.38567197 261.17546728 307.21004329 266.67578125 302.57421875 C268.96641391 300.62869082 271.16519896 298.59926605 273.375 296.5625 C347.59527352 229.70759713 449.2873684 195.41208094 552.90930176 198.91925049 C603.2777545 201.81073474 653.22626693 215.23810886 698.75 236.8125 C700.17578369 237.48514893 700.17578369 237.48514893 701.63037109 238.17138672 C735.92108803 254.48547288 767.30505485 276.08625952 795.3515625 301.63671875 C796.9786306 303.11273981 798.6198499 304.57328203 800.2734375 306.01953125 C806.2379735 311.25914672 811.55698768 316.81338283 816.75 322.8125 C817.65045382 323.82734481 818.55152325 324.84164365 819.453125 325.85546875 C832.09222951 340.19351602 843.56158815 355.64193799 853.75 371.8125 C854.19875488 372.52212891 854.64750977 373.23175781 855.10986328 373.96289062 C887.35809404 425.35678219 906.73475422 481.8637609 914.75 541.8125 C914.94916016 543.24142578 914.94916016 543.24142578 915.15234375 544.69921875 C919.07405926 573.82566763 917.97446224 604.81002122 913.75 633.8125 C913.57839355 634.99666504 913.40678711 636.18083008 913.22998047 637.40087891 C901.59227752 715.14156659 867.71851084 786.95862443 815.75 845.8125 C815.26418457 846.36292969 814.77836914 846.91335938 814.27783203 847.48046875 C803.43403696 859.68290838 791.59524917 870.73417787 778.75 880.8125 C778.17540039 881.27027832 777.60080078 881.72805664 777.00878906 882.19970703 C754.03895346 900.46437329 729.13739644 916.19616041 702.67285156 928.88574219 C700.74008443 929.81727901 698.81919384 930.77054308 696.8984375 931.7265625 C645.95745844 956.76163227 588.32427519 969.33584627 531.6875 969.125 C530.66296722 969.12317719 529.63843445 969.12135437 528.58285522 969.11947632 C512.12823589 969.07039146 496.03154379 968.37219534 479.75 965.8125 C478.60128418 965.63557617 477.45256836 965.45865234 476.26904297 965.27636719 C456.69812134 962.19000913 437.43353976 958.1814866 418.671875 951.76171875 C417.87587891 951.4903862 417.07988281 951.21905365 416.25976562 950.9394989 C412.29000909 949.58141247 408.33141549 948.19899467 404.38476562 946.77514648 C392.3020782 942.1976028 392.3020782 942.1976028 379.75 942.8125 C370.30599252 948.47688869 367.34801227 957.613357 364.43884277 967.58215332 C363.25957614 971.61439676 361.97397437 975.61306675 360.703125 979.6171875 C360.32985077 980.80707275 360.32985077 980.80707275 359.94903564 982.02099609 C355.04527402 997.53086715 348.3453487 1012.44705021 340.78173828 1026.83447266 C339.6859482 1028.93529878 338.6213904 1031.05027556 337.55859375 1033.16796875 C328.11628874 1051.78710062 317.08680211 1069.60005397 304.16748047 1086.00976562 C302.72425495 1087.84524224 301.30021112 1089.69438775 299.87890625 1091.546875 C295.06798344 1097.78583343 290.11396924 1103.80583867 284.7734375 1109.60546875 C283.00551137 1111.53380517 281.31153954 1113.50097978 279.625 1115.5 C270.55539409 1125.87731653 260.57420753 1135.30153037 249.75 1143.8125 C248.57019652 1144.78969388 247.39330233 1145.7704069 246.21875 1146.75390625 C187.73980537 1195.5360871 115.71543005 1223.77702271 40.75 1233.8125 C39.32905029 1234.01166016 39.32905029 1234.01166016 37.87939453 1234.21484375 C8.46674056 1238.20451981 -22.96109074 1237.09878384 -52.25 1232.8125 C-53.43271484 1232.64089355 -54.61542969 1232.46928711 -55.83398438 1232.29248047 C-131.84008892 1220.91596482 -202.35410556 1188.29584731 -260.25 1137.8125 C-261.46816406 1136.76255859 -261.46816406 1136.76255859 -262.7109375 1135.69140625 C-274.50883674 1125.32414928 -285.56209865 1114.17466579 -295.25 1101.8125 C-296.22571353 1100.63385161 -297.205148 1099.4582775 -298.1875 1098.28515625 C-348.77691023 1037.65049884 -379.98956445 959.46883905 -386.25 880.8125 C-386.33612549 879.75675781 -386.42225098 878.70101562 -386.51098633 877.61328125 C-387.25650713 867.62874621 -387.45099247 857.69604249 -387.4375 847.6875 C-387.43689575 846.84790741 -387.4362915 846.00831482 -387.43566895 845.14328003 C-387.27413331 761.20877312 -373.04972998 677.52477307 -296.25 468.8125 C-295.82509277 467.9354541 -295.40018555 467.0584082 -294.96240234 466.15478516 C-280.42649772 436.16692008 -262.82338254 407.73133103 -245.31640625 379.41015625 C-241.08988515 372.56697396 -236.91682341 365.69210709 -232.75 358.8125 C-226.63278798 348.71543607 -220.46705292 338.64961538 -214.26953125 328.6015625 C-209.39564751 320.69227376 -204.56427168 312.75813 -199.75 304.8125 C-193.6323352 294.71570776 -187.46705589 284.6496202 -181.26953125 274.6015625 C-176.39564751 266.69227376 -171.56427168 258.75813 -166.75 250.8125 C-160.6323352 240.71570776 -154.46705589 230.6496202 -148.26953125 220.6015625 C-143.39564751 212.69227376 -138.56427168 204.75813 -133.75 196.8125 C-127.6323352 186.71570776 -121.46705589 176.6496202 -115.26953125 166.6015625 C-110.39564751 158.69227376 -105.56427168 150.75813 -100.75 142.8125 C-94.6323352 132.71570776 -88.46705589 122.6496202 -82.26953125 112.6015625 C-77.39564751 104.69227376 -72.56427168 96.75813 -67.75 88.8125 C-61.63676236 78.72301449 -55.47659759 68.66380525 -49.28271484 58.62353516 C-45.02294172 51.71178775 -40.7939178 44.78226025 -36.58764648 37.83789062 C-35.12965134 35.43083791 -33.6682682 33.02590408 -32.20336914 30.62304688 C-29.17296113 25.64996666 -26.15474068 20.67387812 -23.23828125 15.6328125 C-22.57771729 14.51447021 -22.57771729 14.51447021 -21.90380859 13.37353516 C-21.13331778 12.06793832 -20.37772315 10.75333758 -19.64306641 9.42724609 C-16.45275733 4.09380536 -11.93844817 1.86118061 -6.1315918 0.21020508 C-3.96975429 -0.2467345 -2.19855397 -0.20957439 0 0 Z M-29.35400391 97.60791016 C-32.51543075 102.95131587 -35.79400684 108.22166814 -39.0625 113.5 C-45.02549795 123.16800734 -50.93567506 132.86684217 -56.82192993 142.58163452 C-62.58305936 152.08816238 -68.39496594 161.56232644 -74.23046875 171.0234375 C-79.10435249 178.93272624 -83.93572832 186.86687 -88.75 194.8125 C-94.8676648 204.90929224 -101.03294411 214.9753798 -107.23046875 225.0234375 C-112.10435249 232.93272624 -116.93572832 240.86687 -121.75 248.8125 C-127.8676648 258.90929224 -134.03294411 268.9753798 -140.23046875 279.0234375 C-145.10435249 286.93272624 -149.93572832 294.86687 -154.75 302.8125 C-160.8676648 312.90929224 -167.03294411 322.9753798 -173.23046875 333.0234375 C-178.10435249 340.93272624 -182.93572832 348.86687 -187.75 356.8125 C-193.2159765 365.83372475 -198.71284937 374.8346837 -204.25 383.8125 C-211.60414579 395.74086457 -218.90031806 407.70333576 -226.15150452 419.69450378 C-228.45744463 423.50706443 -230.77377914 427.31315281 -233.09375 431.1171875 C-278.99015781 506.62804863 -312.86029586 588.9722232 -346.9375 776.625 C-347.02904358 777.65241806 -347.02904358 777.65241806 -347.12243652 778.70059204 C-347.53537554 783.40200075 -347.90360807 788.10575842 -348.25 792.8125 C-348.34716309 794.08472412 -348.44432617 795.35694824 -348.54443359 796.66772461 C-349.53120131 810.8604618 -349.47223319 825.09279635 -349.49023438 839.31274414 C-349.49460131 842.25492877 -349.5084532 845.19681724 -349.53125 848.13891602 C-349.7158198 872.49696178 -348.37456095 896.35311228 -343.5625 920.3125 C-343.30686279 921.59745361 -343.05122559 922.88240723 -342.7878418 924.20629883 C-331.31548906 980.4658245 -304.32917392 1033.85041511 -265.5859375 1076.23046875 C-264.32075909 1077.62893519 -263.061671 1079.03353655 -261.83862305 1080.46899414 C-256.808129 1086.35373737 -251.38879006 1091.82600968 -245.9074707 1097.28540039 C-244.31541034 1098.87209946 -242.7287701 1100.46407742 -241.14257812 1102.05664062 C-235.68596116 1107.51751845 -230.1706448 1112.85092809 -224.25 1117.8125 C-223.64309326 1118.32611084 -223.03618652 1118.83972168 -222.41088867 1119.36889648 C-150.07740186 1180.1175363 -58.66746733 1205.5029287 34.90625 1197.5 C118.11404253 1189.56645338 189.61473899 1150.82230942 248.125 1092.5625 C248.87426758 1091.81790527 249.62353516 1091.07331055 250.39550781 1090.30615234 C255.051581 1085.63658631 259.46081502 1080.81943435 263.75 1075.8125 C264.61882813 1074.82507812 265.48765625 1073.83765625 266.3828125 1072.8203125 C298.4591491 1035.71633694 321.02932177 991.35563875 334.375 944.3125 C334.88945679 942.53383545 334.88945679 942.53383545 335.41430664 940.71923828 C338.86199983 928.65036276 338.86199983 928.65036276 336.125 916.90234375 C330.48387365 911.79007299 324.71174007 907.68341796 318.19921875 903.76660156 C303.7865066 895.0962455 290.63498883 884.57959209 277.75 873.8125 C277.1523584 873.31927246 276.5547168 872.82604492 275.93896484 872.31787109 C263.583049 862.1149574 251.83756503 851.14926489 241.91015625 838.53125 C239.94401875 836.05668997 237.90255082 833.66788878 235.82519531 831.28662109 C216.43453056 808.94164324 200.51810649 782.46983752 187.74023438 755.85791016 C186.71620598 753.74269569 185.66431998 751.64291533 184.609375 749.54296875 C163.36980551 706.71318752 151.45853665 658.36665111 147.75 610.8125 C147.69215332 610.08514648 147.63430664 609.35779297 147.57470703 608.60839844 C142.39778461 541.04725651 157.57800262 468.1038338 190.11328125 408.59375 C190.66773926 407.57192627 191.22219727 406.55010254 191.79345703 405.49731445 C192.85388028 403.56401831 193.93548703 401.64212 195.04248047 399.73510742 C198.53647996 393.40724094 200.17448936 388.03488818 198.75 380.8125 C197.2602731 377.06646712 195.25640774 373.81009421 193.0625 370.4375 C192.1816272 369.01812134 192.1816272 369.01812134 191.28295898 367.57006836 C190.05906941 365.60286387 188.82467342 363.64215863 187.58007812 361.68798828 C185.85767939 358.98168994 184.1648099 356.2598458 182.484375 353.52734375 C180.35106421 350.05882598 178.20776186 346.59690975 176.0546875 343.140625 C172.64552029 337.65763203 169.28798049 332.14399379 165.9375 326.625 C160.96694359 318.43999348 155.96371796 310.27593921 150.9375 302.125 C144.97647638 292.45576175 139.06433464 282.75817384 133.17807007 273.04336548 C128.06871072 264.6123334 122.92533247 256.20327571 117.75 247.8125 C111.85037813 238.24743259 106.00082782 228.6534202 100.17724609 219.04199219 C95.06816031 210.61141874 89.92505211 202.20282117 84.75 193.8125 C78.85037813 184.24743259 73.00082782 174.6534202 67.17724609 165.04199219 C61.41860363 155.53957623 55.60949872 146.06932743 49.77612305 136.61254883 C45.20261255 129.1912215 40.66648473 121.74817002 36.14944458 114.29241943 C35.0712429 112.51441743 33.99096564 110.73769504 32.90991211 108.96142578 C29.62729649 103.566317 26.35971546 98.1638004 23.140625 92.73046875 C14.72202683 77.0762763 14.72202683 77.0762763 1.0390625 66.87890625 C-14.51282826 65.11461612 -22.90188999 86.60334947 -29.35400391 97.60791016 Z M463.75 241.8125 C462.72342285 242.0079541 461.6968457 242.2034082 460.63916016 242.40478516 C402.47678724 253.86611361 348.06015089 281.5009435 304.33203125 321.4765625 C302.92129802 322.75283856 301.50420123 324.02268296 300.05834961 325.2590332 C294.49873025 330.02310678 289.29476362 335.11455434 284.1315918 340.30053711 C282.68974779 341.74774385 281.24262884 343.18952026 279.79492188 344.63085938 C274.56842523 349.85287994 269.50537822 355.15610275 264.75 360.8125 C264.24041748 361.41537842 263.73083496 362.01825684 263.20581055 362.6394043 C210.91818654 425.04829291 183.54637318 501.44601858 183.5 582.75 C183.49932526 583.81430237 183.49865051 584.87860474 183.49795532 585.97515869 C183.5654141 653.15527231 201.72647831 720.45889949 240.75 775.8125 C241.13365723 776.36454102 241.51731445 776.91658203 241.91259766 777.48535156 C247.5245146 785.55957214 253.41473831 793.28598198 259.75 800.8125 C260.57314697 801.80531982 261.39629395 802.79813965 262.24438477 803.82104492 C269.77223546 812.82300547 277.8306499 821.20296909 286.15014648 829.47338867 C288.32056561 831.63302554 290.47999817 833.80323903 292.63867188 835.97460938 C300.03709177 843.38048554 307.47795279 850.38216371 315.75 856.8125 C317.02924395 857.85938036 318.30561147 858.90979262 319.578125 859.96484375 C366.8849912 898.64894306 425.46269264 921.79690321 485.75 929.8125 C486.60480957 929.93109375 487.45961914 930.0496875 488.34033203 930.171875 C519.43866587 934.2929715 552.75849248 933.35350692 583.75 928.8125 C584.72195313 928.67859863 585.69390625 928.54469727 586.6953125 928.40673828 C651.69247236 919.27481442 719.25564551 888.02492741 765.1953125 840.37109375 C766.89162726 838.6705169 768.67306297 837.121633 770.5 835.5625 C777.8399809 829.2201864 784.67912325 822.25644384 790.96484375 814.87109375 C793.03979918 812.47831145 795.20968088 810.18629568 797.375 807.875 C814.92332739 788.52955475 829.89054554 766.04886462 841.75 742.8125 C842.21857422 741.89984375 842.68714844 740.9871875 843.16992188 740.046875 C884.80660324 658.18125442 890.9214455 560.50979713 862.5625 473.375 C848.64327311 432.00732952 826.73281173 393.47046158 797.75 360.8125 C796.86634766 359.79965942 796.86634766 359.79965942 795.96484375 358.76635742 C789.40021183 351.33564448 782.44014333 344.31650415 775.43066406 337.30786133 C773.38055982 335.25556576 771.33861249 333.19538085 769.296875 331.13476562 C762.08845529 323.89501018 754.83020999 317.08118165 746.75 310.8125 C745.27782608 309.62862283 743.80643162 308.44377551 742.3359375 307.2578125 C732.51130009 299.46843452 722.47747065 292.30452916 711.75 285.8125 C710.96318848 285.33603027 710.17637695 284.85956055 709.36572266 284.36865234 C658.27994213 253.73333444 601.29874734 237.22808036 541.75 235.8125 C540.98042969 235.79058594 540.21085937 235.76867187 539.41796875 235.74609375 C514.14580844 235.10029749 488.57069742 237.07347396 463.75 241.8125 Z " fill="#000000" transform="translate(1168.25,49.1875)"/>
<path d="M0 0 C1.23064178 -0.00511093 2.46128357 -0.01022186 3.72921753 -0.01548767 C7.07651415 -0.02693708 10.42356166 -0.02946841 13.7708602 -0.02692437 C16.57866083 -0.02584732 19.38643916 -0.03075665 22.19423497 -0.03552979 C28.82547083 -0.04658807 35.45665003 -0.04708324 42.08789062 -0.04101562 C48.89870759 -0.03497894 55.70931781 -0.04728748 62.52009952 -0.06858569 C68.39561258 -0.08627461 74.27106027 -0.09219162 80.14659894 -0.08894795 C83.64345314 -0.08714648 87.14015983 -0.0896563 90.63698959 -0.10366249 C94.54192787 -0.11872101 98.44660833 -0.10920729 102.3515625 -0.09765625 C104.05862366 -0.10912186 104.05862366 -0.10912186 105.8001709 -0.12081909 C114.48104833 -0.06438978 123.64956878 0.81106836 131.30517578 5.2746582 C132.53564453 7.0793457 132.53564453 7.0793457 133.49267578 9.1496582 C133.81623047 9.82770508 134.13978516 10.50575195 134.47314453 11.2043457 C135.90783855 14.77424161 136.42884487 17.91415569 136.40283203 21.75724792 C136.39961441 22.65005463 136.39639679 23.54286133 136.39308167 24.46272278 C136.38469772 25.43473129 136.37631378 26.40673981 136.36767578 27.40820312 C136.35823117 29.54241326 136.34904746 31.67662456 136.34008789 33.81083679 C136.33379364 34.94195074 136.32749939 36.07306469 136.3210144 37.23845482 C136.29401604 43.23293917 136.30392172 49.22739569 136.30908203 55.22192383 C136.31528936 62.84828702 136.30996141 70.47390912 136.25390625 78.10009766 C136.20957159 84.26484191 136.20912929 90.42822306 136.23803711 96.59304237 C136.24111307 98.93852404 136.22826436 101.2840842 136.19897461 103.62938499 C135.52265899 117.6017799 135.52265899 117.6017799 140.37573242 130.22387695 C148.47700699 136.18586788 160.71904866 134.38928827 170.23876953 134.23168945 C172.60091224 134.22718068 174.96306763 134.22722762 177.32521057 134.23161316 C183.53122443 134.23357316 189.73574204 134.18538725 195.94140625 134.12304688 C205.86857022 134.02932221 215.79582034 134.00132407 225.72337532 133.99341393 C229.17912409 133.98188838 232.6337318 133.94253431 236.08921814 133.89985657 C238.22296765 133.88957691 240.35672128 133.88010964 242.49047852 133.87158203 C243.44091537 133.85241226 244.39135223 133.83324249 245.37059021 133.81349182 C252.38241491 133.82054502 259.59749403 135.00120197 265.03002071 139.79749775 C266.4807105 141.47800049 267.17212102 142.94209018 267.93017578 145.0246582 C268.16994141 145.65887695 268.40970703 146.2930957 268.65673828 146.9465332 C270.63853008 154.06188206 270.45333601 161.23987776 270.45043945 168.56884766 C270.45547737 170.40434174 270.45547737 170.40434174 270.46061707 172.2769165 C270.46846535 175.61799504 270.47179324 178.95901141 270.47243285 182.30009484 C270.473146 184.39224209 270.47528532 186.48438291 270.47793007 188.57652855 C270.48716843 195.88891383 270.49126687 203.20128095 270.49047852 210.51367188 C270.48987821 217.3079455 270.50042472 224.10213961 270.51622218 230.89639312 C270.52933849 236.74802594 270.5346607 242.5996329 270.53402311 248.4512803 C270.53376931 251.93802612 270.53655462 255.42470121 270.54720116 258.91143227 C270.55876677 262.8050809 270.55411035 266.69862219 270.5480957 270.59228516 C270.55371521 271.73287888 270.55933472 272.8734726 270.56512451 274.04862976 C270.52896334 283.29243168 270.17040645 292.75513171 264.30517578 300.2746582 C256.64224524 304.98147696 249.08846794 305.41521458 240.33349609 305.3371582 C238.26003122 305.32771544 236.18656516 305.31853154 234.11309814 305.30957031 C233.01688393 305.30327606 231.92066971 305.29698181 230.79123688 305.29049683 C224.97297244 305.26345603 219.15473549 305.27340504 213.33642578 305.27856445 C205.93832458 305.28477183 198.54098772 305.27941688 191.14306641 305.22338867 C185.15870441 305.1790477 179.17574642 305.17861356 173.19130707 305.20751953 C170.91560153 305.21059446 168.63981496 305.19775659 166.36429596 305.16845703 C152.71408617 304.53629132 152.71408617 304.53629132 140.39916992 309.34521484 C134.38305575 317.43651486 136.19028003 329.67248275 136.34814453 339.20825195 C136.35265331 341.57039466 136.35260637 343.93255005 136.34822083 346.29469299 C136.34626082 352.50070686 136.39444674 358.70522446 136.45678711 364.91088867 C136.55051178 374.83805264 136.57850992 384.76530276 136.58642006 394.69285774 C136.5979456 398.14860651 136.63729967 401.60321422 136.67997742 405.05870056 C136.69025708 407.19245007 136.69972435 409.3262037 136.70825195 411.45996094 C136.72742172 412.4103978 136.74659149 413.36083466 136.76634216 414.34007263 C136.75972591 420.91750736 135.51403476 426.477351 132.30517578 432.2746582 C124.73412058 439.00448505 115.77868768 438.57224776 106.20068359 438.56518555 C104.89084503 438.57190277 103.58100647 438.57862 102.23147583 438.58554077 C98.65273462 438.60313996 95.07408918 438.60789362 91.49530888 438.60917234 C89.25439788 438.61059819 87.0135109 438.614876 84.7726059 438.62016678 C76.94034797 438.63864836 69.10815792 438.64683992 61.27587891 438.64526367 C53.99870265 438.64406343 46.72182354 438.66514742 39.44472241 438.696751 C33.17778049 438.72298837 26.91093515 438.73362783 20.64393878 438.73235285 C16.90948443 438.73184532 13.17529425 438.73741173 9.44089508 438.75870895 C5.26947555 438.78185069 1.0987126 438.77252508 -3.07275391 438.76049805 C-4.293909 438.77173706 -5.51506409 438.78297607 -6.77322388 438.79455566 C-14.60280822 438.73740742 -23.12732104 438.09873718 -29.39551926 432.85077477 C-35.01185513 426.03790154 -34.83127974 417.59798986 -34.75732422 409.30297852 C-34.74788145 407.22951364 -34.73869755 405.15604758 -34.72973633 403.08258057 C-34.72344208 401.98636635 -34.71714783 400.89015213 -34.71066284 399.7607193 C-34.68362205 393.94245486 -34.69357105 388.12421791 -34.69873047 382.3059082 C-34.70493784 374.907807 -34.6995829 367.51047014 -34.64355469 360.11254883 C-34.59921371 354.12818683 -34.59877958 348.14522885 -34.62768555 342.16078949 C-34.63076048 339.88508395 -34.61792261 337.60929738 -34.58862305 335.33377838 C-33.95197824 321.67270833 -33.95197824 321.67270833 -38.80639648 309.37084961 C-46.76653053 303.45061647 -58.58150632 305.13515525 -67.97216797 305.2824707 C-70.26705462 305.28443742 -72.56194888 305.28199663 -74.85682678 305.27536011 C-80.88527908 305.26774622 -86.91221971 305.31112765 -92.94036865 305.36798096 C-102.5832416 305.45071751 -112.22640101 305.45730689 -121.86956978 305.46102524 C-125.22546408 305.46981563 -128.58055255 305.5012103 -131.93626404 305.53616333 C-134.00934626 305.54600639 -136.08243079 305.55537944 -138.15551758 305.56420898 C-139.07790222 305.57978348 -140.00028687 305.59535797 -140.95062256 305.61140442 C-148.66013752 305.61552666 -155.92646176 304.102718 -162.69482422 300.2746582 C-163.92529297 298.4699707 -163.92529297 298.4699707 -164.88232422 296.3996582 C-165.36765625 295.38258789 -165.36765625 295.38258789 -165.86279297 294.3449707 C-167.45226798 290.38993899 -167.82364686 286.92714113 -167.84199524 282.66661072 C-167.84915054 281.52426971 -167.85630585 280.38192871 -167.86367798 279.20497131 C-167.86636688 277.95558273 -167.86905579 276.70619415 -167.87182617 275.41894531 C-167.87839737 274.09979126 -167.88496857 272.78063721 -167.89173889 271.42150879 C-167.91274392 267.04835214 -167.92314086 262.6751953 -167.93310547 258.30200195 C-167.93715495 256.79284713 -167.94127193 255.28369249 -167.94545555 253.77453804 C-167.96450277 246.68012515 -167.97873239 239.58572261 -167.98706752 232.49128908 C-167.9968257 224.32187342 -168.02310983 216.15272973 -168.06356841 207.98340982 C-168.09381586 201.6570927 -168.10854471 195.33085314 -168.11184853 189.00446516 C-168.11419002 185.2319436 -168.12303133 181.45971272 -168.14830971 177.68726921 C-168.17174599 174.13226134 -168.17576213 170.5777323 -168.16554832 167.02266693 C-168.16482398 165.11275096 -168.18380722 163.20285846 -168.20361328 161.29304504 C-168.15835995 153.71969149 -167.25383097 147.06219308 -163.69482422 140.2746582 C-157.03961098 134.34283771 -149.82259271 133.99324095 -141.33422852 134.09863281 C-140.30417694 134.10304382 -139.27412537 134.10745483 -138.21286011 134.11199951 C-135.98174217 134.12182631 -133.75063909 134.13567242 -131.51956749 134.15308952 C-126.76964252 134.18553673 -122.01993457 134.18305867 -117.26991749 134.18280125 C-108.43284226 134.18294482 -99.59632261 134.19813104 -90.75952148 134.27099609 C-84.60548353 134.32040113 -78.45273845 134.32592763 -72.298563 134.30285835 C-69.95864428 134.3022906 -67.61866172 134.31791977 -65.2789669 134.35029411 C-51.32767512 135.04968845 -51.32767512 135.04968845 -38.75 130.15869141 C-32.89434735 122.20923151 -34.57772041 110.45321356 -34.73779297 101.1027832 C-34.74230291 98.81508827 -34.74225369 96.52738024 -34.73786926 94.23968506 C-34.73590925 88.22714808 -34.78408143 82.21615545 -34.84643555 76.20397949 C-34.94013705 66.59766287 -34.96818 56.99126493 -34.9760685 47.38454437 C-34.98755507 44.04690859 -35.02687914 40.71047038 -35.06962585 37.37310791 C-35.26402917 12.19668997 -35.26402917 12.19668997 -29.01774597 5.46807861 C-20.75949653 -0.3863584 -9.66803058 -0.02097187 0 0 Z M4.9982605 44.64093018 C0.5973134 52.54425447 2.05914803 63.16581336 2.21533203 71.8684082 C2.21916737 74.1842825 2.21814713 76.50016943 2.21250916 78.81604004 C2.20870466 84.89561504 2.2618603 90.973283 2.32983398 97.0524292 C2.42872902 106.78003182 2.43943069 116.50813687 2.45260429 126.23616028 C2.46511034 129.6209086 2.50105073 133.00476002 2.54103088 136.38928223 C2.55407163 138.47932678 2.56670191 140.56937394 2.57885742 142.65942383 C2.59600296 143.58958817 2.6131485 144.5197525 2.6308136 145.47810364 C2.64621601 152.58408704 1.74697264 159.7476183 -2.38232422 165.7121582 C-9.09736503 170.24934794 -15.41576318 170.68913369 -23.26660156 170.54833984 C-24.2953389 170.54246857 -25.32407623 170.53659729 -26.38398743 170.5305481 C-28.60636277 170.51695087 -30.82870662 170.49701892 -33.0509758 170.47139168 C-36.5746622 170.434353 -40.09762047 170.42202076 -43.62149048 170.41734314 C-53.63625725 170.40262618 -63.65032932 170.36744255 -73.66455078 170.2578125 C-79.80145584 170.19240586 -85.93687177 170.17588933 -92.07408524 170.19051933 C-94.40485368 170.18674096 -96.73566945 170.16476225 -99.066082 170.1238575 C-113.50279761 169.42765973 -113.50279761 169.42765973 -126.11816406 175.26464844 C-131.4642189 182.25436081 -131.14338769 190.144146 -131.02294922 198.5246582 C-131.02970071 200.19036266 -131.03941855 201.85605745 -131.05194092 203.52172852 C-131.06661559 206.99892744 -131.04549436 210.47354311 -130.99853516 213.95043945 C-130.94154186 218.38370343 -130.97438682 222.81091518 -131.0342598 227.24395752 C-131.07058928 230.67957272 -131.05881086 234.11377823 -131.03298187 237.54943848 C-131.02636334 239.18233986 -131.03431279 240.81537392 -131.0577774 242.44812012 C-131.1436025 250.09655602 -130.94945301 256.96808225 -126.08422852 263.28686523 C-117.76775673 270.21328594 -106.34919923 268.52670747 -96.13623047 268.3293457 C-93.82275716 268.32296718 -91.50926515 268.32159482 -89.19578552 268.32498169 C-83.12149353 268.32313549 -77.04914205 268.26518482 -70.9753418 268.19171143 C-61.25990678 268.08182347 -51.54417377 268.04970194 -41.82819939 268.03235245 C-38.44942679 268.01713041 -35.07194647 267.9732427 -31.6934967 267.92550659 C-29.60353077 267.91202653 -27.51355979 267.89930223 -25.42358398 267.88745117 C-24.03373039 267.85633995 -24.03373039 267.85633995 -22.61579895 267.82460022 C-16.46159152 267.82084996 -11.61675496 269.08753781 -5.91920376 271.41327095 C-3.7815409 272.39503054 -3.7815409 272.39503054 -1.69482422 272.2746582 C-1.21374147 273.69067534 -0.73504281 275.10750257 -0.25732422 276.5246582 C0.00951172 277.31356445 0.27634766 278.1024707 0.55126953 278.9152832 C1.73068371 282.60629959 2.42965912 285.7846518 2.39610291 289.67459106 C2.38910873 290.98639091 2.38910873 290.98639091 2.38197327 292.32469177 C2.36704079 293.75229576 2.36704079 293.75229576 2.35180664 295.20874023 C2.33903263 297.29924328 2.32659203 299.38974838 2.31443787 301.48025513 C2.30652159 302.58814518 2.29860531 303.69603523 2.29044914 304.83749771 C2.24830827 311.94356307 2.26017726 319.0497957 2.26033688 326.15596199 C2.25733995 332.39744222 2.23664816 338.63792334 2.1784668 344.87915039 C2.12319785 350.92077728 2.11685988 356.96072759 2.14315987 363.00252914 C2.14439192 365.29976162 2.12797672 367.59707656 2.09324455 369.89404678 C1.46559728 384.19663942 1.46559728 384.19663942 7.29956055 396.67944336 C14.28597786 402.04728927 22.16719987 401.72332893 30.55517578 401.6027832 C32.22088024 401.6095347 33.88657503 401.61925254 35.55224609 401.6317749 C39.02944502 401.64644958 42.50406069 401.62532834 45.98095703 401.57836914 C50.41422101 401.52137585 54.84143276 401.55422081 59.2744751 401.61409378 C62.7100903 401.65042326 66.14429581 401.63864484 69.57995605 401.61281586 C71.21285744 401.60619732 72.8458915 401.61414678 74.4786377 401.63761139 C82.11198068 401.72326712 88.99948206 401.52854547 95.31738281 396.69360352 C102.32081564 388.28326845 100.555134 376.56176642 100.35986328 366.2434082 C100.35348547 363.8826986 100.35211203 361.52197067 100.35549927 359.16125488 C100.35365295 352.96329654 100.29569316 346.7672397 100.222229 340.56976318 C100.11233805 330.65262326 100.08023662 320.73518847 100.06287003 310.81752014 C100.04762927 307.36614406 100.00373187 303.91602657 99.95602417 300.46496582 C99.94254679 298.33447752 99.92982228 296.20398428 99.91796875 294.07348633 C99.88685753 292.65018761 99.88685753 292.65018761 99.8551178 291.19813538 C99.85124059 284.72439734 100.89342024 278.88301122 104.30517578 273.2746582 C109.16732516 269.62812559 114.71725374 268.13225096 120.74307251 268.18373108 C122.06749359 268.19072525 122.06749359 268.19072525 123.41867065 268.19786072 C124.37975739 268.2078157 125.34084412 268.21777069 126.33105469 268.22802734 C128.44178073 268.24080141 130.55250882 268.25324199 132.66323853 268.26539612 C133.78192951 268.2733124 134.9006205 268.28122868 136.05321121 268.28938484 C143.2279293 268.33152242 150.40281295 268.31965673 157.577631 268.31949711 C163.87964136 268.32249411 170.18066224 268.34318768 176.48242188 268.40136719 C182.5823987 268.45663232 188.68071493 268.46297557 194.78086472 268.43667412 C197.1004253 268.43544197 199.42006753 268.45185994 201.73936844 268.48658943 C216.14366756 269.12999871 216.14366756 269.12999871 228.72363281 263.28027344 C234.07652245 256.29358205 233.75374902 248.4058506 233.63330078 240.0246582 C233.64005228 238.35895375 233.64977012 236.69325896 233.66229248 235.02758789 C233.67696715 231.55038896 233.65584592 228.07577329 233.60888672 224.59887695 C233.55189343 220.16561298 233.58473838 215.73840123 233.64461136 211.30535889 C233.68094084 207.86974369 233.66916242 204.43553818 233.64333344 200.99987793 C233.6367149 199.36697654 233.64466436 197.73394249 233.66812897 196.10119629 C233.75370657 188.47481609 233.5587188 181.57993855 228.73779297 175.26245117 C220.28410133 168.22353758 208.42218473 170.02566166 198.05517578 170.2199707 C195.67204585 170.22634837 193.28889778 170.22772203 190.90576172 170.22433472 C184.64862723 170.22618114 178.39337601 170.28414423 172.13671875 170.35760498 C162.12482422 170.46749085 152.11263762 170.49959601 142.10021973 170.51696396 C138.61561013 170.53220635 135.13224655 170.57610497 131.64794922 170.62380981 C129.49723789 170.63728702 127.34652167 170.65001154 125.19580078 170.66186523 C123.75847595 170.69297646 123.75847595 170.69297646 122.29211426 170.72471619 C115.83576411 170.72854715 109.69563317 170.10698296 104.30517578 166.2746582 C99.86801296 160.03344989 99.75806501 152.7715162 99.91796875 145.3840332 C99.923694 144.34525024 99.92941925 143.30646729 99.93531799 142.23620605 C99.94934335 139.99801877 99.97207064 137.75987206 100.00271225 135.52185059 C100.04802638 131.97272255 100.06296538 128.42464431 100.06912231 124.87524414 C100.08995386 114.79044359 100.14868975 104.70645852 100.26708984 94.62231445 C100.33756321 88.43776825 100.35916718 82.25462007 100.35037613 76.06970215 C100.35665854 73.7221652 100.38141886 71.37459894 100.42541122 69.02746582 C101.15574391 54.52373118 101.15574391 54.52373118 95.31738281 41.84204102 C88.32602816 36.50688161 80.43196936 36.82614818 72.05517578 36.9465332 C70.38947133 36.93978171 68.72377654 36.93006387 67.05810547 36.9175415 C63.58090654 36.90286683 60.10629087 36.92398806 56.62939453 36.97094727 C52.19613056 37.02794056 47.7689188 36.9950956 43.33587646 36.93522263 C39.90026126 36.89889315 36.46605576 36.91067157 33.03039551 36.93650055 C31.39749412 36.94311909 29.76446007 36.93516963 28.13171387 36.91170502 C19.10767307 36.8104439 11.18826454 37.2086487 4.9982605 44.64093018 Z " fill="#000000" transform="translate(1648.69482421875,413.725341796875)"/>
<path d="M0 0 C2.39509297 2.63632905 3.82900738 5.53033978 5.34924316 8.73403931 C5.80400607 9.62566092 6.25876897 10.51728253 6.72731256 11.43592298 C8.23766376 14.4163452 9.70129774 17.41733143 11.16601562 20.42041016 C12.24213661 22.56734 13.32104151 24.71287637 14.4025116 26.8571167 C17.02643173 32.07787293 19.62038553 37.31271392 22.20101964 42.55498524 C25.21896713 48.68219064 28.27131062 54.79203603 31.32516867 60.90140049 C36.78599046 71.82879336 42.2163674 82.77103172 47.62939453 93.72216797 C52.85555349 104.29516415 58.10135481 114.85807888 63.37060547 125.40966797 C63.69388071 126.05702961 64.01715595 126.70439125 64.35022742 127.37136991 C64.67300049 128.01771266 64.99577357 128.66405541 65.32832766 129.32998431 C65.97855846 130.63205795 66.62878237 131.93413504 67.27899933 133.23621559 C67.59984113 133.87870219 67.92068292 134.52118878 68.2512472 135.18314467 C73.30180488 145.29891958 78.33433246 155.42366979 83.36495319 165.54937059 C85.17403894 169.19023832 86.98557911 172.8298718 88.79898036 176.46859188 C91.95911754 182.80991072 95.10654126 189.15734904 98.24129677 195.51125336 C99.27482889 197.60186157 100.31212889 199.69061288 101.35385704 201.7771492 C122.79077008 244.74306032 136.21667371 290.85019029 138 339 C138.04125 339.9075 138.0825 340.815 138.125 341.75 C139.01655557 378.30377844 125.2994779 415.37081712 103 444 C102.26136719 444.98355469 101.52273438 445.96710938 100.76171875 446.98046875 C85.20677842 467.01125337 60.48155273 480.33544599 37 489 C36.36690918 489.23702637 35.73381836 489.47405273 35.08154297 489.71826172 C-2.04824598 503.32507164 -42.89711757 500.23393572 -78.640625 483.94921875 C-82.50637 482.10005333 -86.25538907 480.08315067 -90 478 C-91.0621875 477.42507813 -92.124375 476.85015625 -93.21875 476.2578125 C-127.31825518 457.18669749 -150.28261383 424.16178509 -160.8125 386.9375 C-162.41599661 380.95124366 -163.69057176 374.91757898 -164.75 368.8125 C-164.86577393 368.14919678 -164.98154785 367.48589355 -165.10083008 366.80249023 C-166.99972836 354.77805981 -167.2049478 342.80566035 -166.3125 330.6875 C-166.21928467 329.39279785 -166.12606934 328.0980957 -166.0300293 326.76416016 C-161.48109962 266.88480311 -137.34863851 216.21411478 -111.08984375 163.32421875 C-110.23318395 161.59800682 -110.23318395 161.59800682 -109.35921788 159.83692193 C-103.9635042 148.96467444 -98.56387153 138.09438678 -93.15262508 127.22986126 C-91.91215879 124.73912522 -90.67174214 122.24836447 -89.43139648 119.75756836 C-89.12323494 119.13874481 -88.81507339 118.51992126 -88.49757362 117.88234548 C-83.47901118 107.80267931 -78.48675628 97.71021051 -73.50466412 87.61247697 C-68.3640214 77.19454922 -63.19877096 66.78912566 -58.01100451 56.39458209 C-55.10862068 50.57756565 -52.21718277 44.75569301 -49.35185051 38.92032433 C-46.66516667 33.45010172 -43.94864151 27.9957844 -41.20840263 22.55220222 C-40.20962586 20.55503665 -39.22177209 18.55236495 -38.24580765 16.54395294 C-36.91061937 13.80056543 -35.53725961 11.07985179 -34.1526947 8.36112976 C-33.58898152 7.16686474 -33.58898152 7.16686474 -33.01388019 5.94847316 C-30.18111509 0.53266042 -27.18473162 -1.36353386 -21.4458037 -3.37011784 C-13.74194418 -5.35413792 -6.85742816 -4.01984493 0 0 Z M-38.04492188 98.859375 C-38.78710892 100.33672872 -39.5310215 101.81321662 -40.27650452 103.28890991 C-42.2804644 107.26854041 -44.25939173 111.26012808 -46.23316383 115.25479889 C-48.32007227 119.46920043 -50.42806546 123.67304043 -52.53308105 127.87841797 C-56.07022518 134.95281312 -59.59159349 142.03488172 -63.10302734 149.12207031 C-67.12958535 157.24859497 -71.17819798 165.36380992 -75.23973989 173.47290039 C-79.17886349 181.33840192 -83.1040852 189.21076017 -87.02259827 197.08654785 C-88.67386597 200.40518963 -90.32927415 203.72171219 -91.98826599 207.03649902 C-117.54902264 258.15162528 -142.94949221 323.40967038 -124.74609375 381.07421875 C-114.91029142 410.22985442 -91.03195351 435.97709782 -64.203125 450.515625 C-38.56338296 463.10792435 -6.1575859 464.99333753 20.98974609 456.23291016 C38.49624751 450.16553549 52.33513875 440.03620078 65.61376953 427.32324219 C66.7403629 426.24783957 67.88172759 425.18792719 69.02734375 424.1328125 C87.80305581 406.37319779 99.53676352 380.81187611 100.26409912 354.98013306 C100.32767473 351.25715164 100.33033072 347.53589605 100.3125 343.8125 C100.31067719 343.02275787 100.30885437 342.23301575 100.30697632 341.41934204 C100.25293082 327.44761289 99.37354003 313.78936382 97 300 C96.8443457 299.07606445 96.68869141 298.15212891 96.52832031 297.20019531 C94.44470771 285.33483252 91.23144974 273.84186815 87.5625 262.375 C87.22275146 261.27647705 86.88300293 260.1779541 86.53295898 259.04614258 C83.62913406 250.33958226 79.78282641 242.18869633 75.76831055 233.95043945 C75.14691607 232.66987849 74.52566423 231.3892483 73.90454483 230.10855389 C63.12689849 207.91260598 52.15027762 185.81379278 41.16113663 163.72202015 C37.29941079 155.95782747 33.44565262 148.18987936 29.61083984 140.41235352 C26.22130762 133.53792585 22.81760611 126.67073786 19.39670825 119.81186122 C17.60009766 116.20855749 15.81028029 112.60226404 14.03751373 108.98716164 C12.37716663 105.60195977 10.69772529 102.22691401 9.0038662 98.8583622 C8.10262699 97.0542039 7.22114021 95.24021927 6.34059143 93.4258728 C2.36163158 85.57642541 -2.97931817 76.15250744 -11.71264267 73.03017902 C-25.84837743 71.60928608 -32.79249899 88.13854601 -38.04492188 98.859375 Z " fill="#000000" transform="translate(581,787)"/>
<path d="M0 0 C12.21 0 24.42 0 37 0 C35.83566908 15.13630199 35.83566908 15.13630199 33.8125 22.3125 C33.47822998 23.52413818 33.47822998 23.52413818 33.13720703 24.76025391 C27.15057163 45.9108166 17.64137103 65.69527779 4 83 C3.57783203 83.55091309 3.15566406 84.10182617 2.72070312 84.66943359 C-8.04813409 98.6486798 -21.80417751 108.26518859 -37 117 C-37.62036133 117.35690918 -38.24072266 117.71381836 -38.87988281 118.08154297 C-55.96471229 127.69910034 -79.12832411 137 -99 137 C-99 124.46 -99 111.92 -99 99 C-96.009375 98.46375 -93.01875 97.9275 -89.9375 97.375 C-67.55699302 93.01126479 -50.57210891 82.47559472 -34.55371094 66.5390625 C-33.25712518 65.254701 -31.93258102 63.99864278 -30.6015625 62.75 C-12.60883279 45.68179791 -3.99997476 23.99984858 0 0 Z " fill="#000000" transform="translate(1380,981)"/>
</svg>
