<?xml version="1.0" encoding="UTF-8"?>
<svg xmlns="http://www.w3.org/2000/svg" viewBox="0 0 512 512" width="512" height="512"><g id="Layer_28" data-name="Layer 28"><path d="M437.309,334.625a33.1,33.1,0,0,0-46.18-19.141,105.087,105.087,0,0,0-21.422,14.227l-36.644,31.414A40.01,40.01,0,0,0,296,336H249.887a68.208,68.208,0,0,1-30.313-7.156A84.187,84.187,0,0,0,182.113,320h-7.168a83.552,83.552,0,0,0-46.472,14.07l-28.5,19-8.4,4.2-4.423-8.845a8,8,0,0,0-10.734-3.578l-64,32a8,8,0,0,0-3.578,10.734l56,112a8,8,0,0,0,10.734,3.578l64-32a8,8,0,0,0,3.578-10.734l-4.41-8.822c23.669-11.223,49.121-15,70.914-10.147l14.555,3.235A139.465,139.465,0,0,0,254.391,448h36.074a103.691,103.691,0,0,0,70.543-27.586l76.418-70.539a7.993,7.993,0,0,0,2.164-8.406ZM75.578,485.266,26.734,387.578l49.688-24.844,48.844,97.688Zm274.578-76.6A87.764,87.764,0,0,1,290.465,432H254.391a122.715,122.715,0,0,1-26.7-2.938l-14.559-3.234c-25.315-5.607-54.589-1.359-81.531,11.477L98.734,371.578l8.844-4.422a7.483,7.483,0,0,0,.86-.5l28.91-19.273A67.593,67.593,0,0,1,174.945,336h7.168a68.208,68.208,0,0,1,30.313,7.156A84.187,84.187,0,0,0,249.887,352H296a24.041,24.041,0,0,1,22.629,16H248v16h80a7.881,7.881,0,0,0,5.148-2l.059.069,46.918-40.218a88.887,88.887,0,0,1,18.148-12.047,17.088,17.088,0,0,1,23.856,9.883l.648,1.937Z"/><path d="M456,128H432V104a8,8,0,0,0-8-8H392a8,8,0,0,0-8,8v24H360a8,8,0,0,0-8,8v32a8,8,0,0,0,8,8h24v24a8,8,0,0,0,8,8h32a8,8,0,0,0,8-8V176h24a8,8,0,0,0,8-8V136A8,8,0,0,0,456,128Zm-8,32H424a8,8,0,0,0-8,8v24H400V168a8,8,0,0,0-8-8H368V144h24a8,8,0,0,0,8-8V112h16v24a8,8,0,0,0,8,8h24Z"/><path d="M408,56a95.788,95.788,0,0,0-73.308,34.152L286.828,11.828c-2.914-4.75-10.742-4.75-13.656,0l-58.8,96.219A207.018,207.018,0,0,0,184,216a95.99,95.99,0,0,0,188.626,25.163A95.967,95.967,0,1,0,408,56ZM280,296a80.092,80.092,0,0,1-80-80,190.975,190.975,0,0,1,28.027-99.609L280,31.344,324.7,104.483A95.578,95.578,0,0,0,357.959,233.77,79.506,79.506,0,0,1,280,296Zm128-64a80,80,0,1,1,80-80A80.092,80.092,0,0,1,408,232Z"/><path d="M136,312a40.047,40.047,0,0,0,40-40,76.173,76.173,0,0,0-8-33.891l-24.844-49.687c-2.711-5.422-11.6-5.422-14.312,0L104,238.109A76.173,76.173,0,0,0,96,272,40.047,40.047,0,0,0,136,312Zm-17.688-66.734L136,209.891l17.688,35.375A60.087,60.087,0,0,1,160,272a24,24,0,0,1-48,0A60.087,60.087,0,0,1,118.312,245.266Z"/><path d="M304,256v16a40.047,40.047,0,0,0,40-40H328A24.027,24.027,0,0,1,304,256Z"/></g></svg>
