<svg id="Layer_1" enable-background="new 0 0 512 512" viewBox="0 0 512 512" xmlns="http://www.w3.org/2000/svg"><path d="m483.214 224.697-62.088-107.539c-2.78-4.816-7.286-8.266-12.687-9.713-5.401-1.449-11.027-.713-15.843 2.068l-35.377 20.425c-8.855 5.112-12.534 15.771-9.221 25.08-30.891 8.746-57.792 4.712-75.701.771-27.684-6.095-40.993.006-59.639 16.9l-48.755-17.417c3.474-9.368-.185-20.175-9.122-25.334l-35.377-20.425c-4.816-2.78-10.443-3.517-15.843-2.068-5.401 1.447-9.906 4.896-12.687 9.713l-62.088 107.539c-2.781 4.816-3.515 10.443-2.068 15.844 1.447 5.4 4.896 9.906 9.712 12.687l35.377 20.425c3.202 1.849 6.762 2.793 10.376 2.793 1.822 0 3.657-.24 5.467-.725 5.4-1.447 9.906-4.896 12.687-9.713l1.108-1.919 30.603 38.217-1.976 2.81c-8.78 12.482-3.751 25.782 5.754 32.47 4.35 3.061 9.689 4.771 15.037 4.53-2.571 9.806 2.133 19.133 9.596 24.383 6.142 4.319 14.249 5.951 21.586 3.196.982 6.419 4.85 12.075 10.063 15.742 7.599 5.343 18.207 6.566 26.642.472.282.889.624 1.77 1.026 2.636 3.647 7.866 11.584 13.448 20.22 14.223.672.061 1.339.09 2.002.09 7.289 0 13.959-3.61 18.531-10.11l5.694-8.095 23.509 13.688c4.125 2.401 8.213 3.449 12.064 3.449 8.46 0 15.773-5.062 19.792-11.963 2.666-4.575 3.913-10.013 3.235-15.302 10.053 1.803 19.012-3.692 23.628-11.617 2.536-4.354 3.789-9.486 3.32-14.53 10.871 2.999 20.741-2.699 25.666-11.157 4.633-7.957 4.981-18.513-1.629-26.374 4.917-2.026 9.015-5.789 11.67-10.354 4.667-8.023 4.969-18.687-1.825-26.57l23.613-12.058 2.393 4.144c2.781 4.816 7.286 8.266 12.687 9.713 1.811.484 3.646.725 5.467.725 3.614 0 7.174-.944 10.376-2.793l35.377-20.425c4.816-2.78 8.266-7.286 9.713-12.687 1.45-5.402.716-11.029-2.065-15.845zm-391.536 36.31c-1.445 2.503-3.794 4.298-6.615 5.054-2.82.758-5.751.376-8.255-1.069l-35.378-20.425c-2.503-1.445-4.297-3.794-5.053-6.614-.755-2.82-.376-5.753 1.069-8.256l62.088-107.539c1.445-2.504 3.794-4.298 6.614-5.054.949-.254 1.91-.38 2.863-.38 1.881 0 3.731.49 5.392 1.449l35.377 20.425c5.198 3.001 6.985 9.672 3.984 14.87zm49.903 68.399c-5.45-3.834-8.593-11.054-3.329-18.537l18.372-26.12c5.263-7.481 13.118-6.967 18.569-3.135 5.45 3.831 8.598 11.044 3.347 18.526l-18.386 26.139c-5.265 7.483-13.121 6.964-18.573 3.127zm43.207 25.781c-5.266 7.484-13.123 6.967-18.575 3.131-5.451-3.834-8.595-11.054-3.33-18.537l5.449-7.748h.001c.001-.001.001-.002.002-.003l18.383-26.135.002-.004c.003-.004.006-.008.009-.013l7.302-10.381c5.265-7.485 13.122-6.968 18.573-3.132 5.452 3.834 8.596 11.054 3.332 18.539l-3.899 5.543c-.002.002-.003.004-.004.006l-.001.002-25.683 36.513s0 0-.001.001zm31.648 18.937c-5.265 7.484-13.122 6.967-18.573 3.132-5.448-3.831-8.592-11.043-3.344-18.522l.009-.013 25.682-36.512c5.267-7.478 13.122-6.956 18.571-3.121s8.592 11.055 3.329 18.537l-10.627 15.108-9.212 13.098zm35.917 12.867c-3.742 5.319-8.3 6.096-11.462 5.814-5.063-.454-9.902-3.857-12.041-8.469-1.336-2.882-2.144-7.433 1.598-12.752l9.212-13.098c5.265-7.484 13.121-6.965 18.572-3.131 5.452 3.835 8.596 11.055 3.333 18.538zm126.484-91.528c-3.348 5.757-10.264 9.513-18.172 4.92l-32.339-18.829c-2.388-1.388-5.447-.582-6.836 1.806-1.39 2.386-.582 5.447 1.805 6.837l32.339 18.829c.001.001.003.001.004.002.001.001 0 0 .001.001l8.45 4.92c7.908 4.605 8.064 12.479 4.71 18.238-3.353 5.76-10.276 9.51-18.185 4.906l-10.469-6.097c-.001 0 0 0-.001-.001h-.001s-.001 0-.001-.001l-32.657-19.015c-2.387-1.389-5.447-.581-6.836 1.806-1.39 2.386-.582 5.447 1.805 6.837l32.654 19.013s.001.001.001.001c7.905 4.606 8.059 12.479 4.705 18.237-3.355 5.757-10.28 9.506-18.185 4.903l-8.35-4.861c-.002-.001-.004-.001-.005-.002l-26.63-15.506c-2.388-1.39-5.448-.582-6.837 1.805-1.39 2.386-.582 5.447 1.805 6.836l26.636 15.51c7.902 4.607 8.056 12.478 4.702 18.235-3.355 5.757-10.28 9.504-18.184 4.905l-23.005-13.395c5.827-11.451.886-23.032-7.776-29.125-3.851-2.709-8.474-4.359-13.196-4.535 8.078-12.264 3.063-25.176-6.253-31.732-4.647-3.271-10.422-5.003-16.135-4.455 1.434-9.018-3.116-17.399-10.042-22.271-8.131-5.717-19.708-6.72-28.382.919-1.695-4.718-4.953-8.804-9.033-11.672-9.506-6.681-23.721-6.915-32.498 5.562l-10.405 14.794-31.227-38.997 52.313-90.608 45.359 16.203c-2.6 2.519-5.323 5.2-8.223 8.057-3.615 3.562-7.354 7.245-11.523 11.283-.914.885-1.456 2.084-1.516 3.354l-2.118 44.59c-.452 9.514 3.577 14.105 7.037 16.283 6.401 4.026 15.908 3.016 26.772-2.85 9.202-4.967 14.561-16.416 19.743-27.487 1.216-2.598 2.376-5.075 3.542-7.366.971-.456 1.941-.916 2.91-1.376 12.54-5.953 23.371-11.094 34.081-4.911l98.934 57.267c7.903 4.604 8.062 12.474 4.712 18.233zm-2.047-28.243-96.594-55.913c-15.265-8.813-30.199-1.722-43.375 4.534-1.454.69-2.909 1.382-4.368 2.055-.993.458-1.809 1.229-2.321 2.194-1.545 2.909-2.996 6.008-4.531 9.288-4.285 9.153-9.141 19.529-15.437 22.928-8.643 4.665-14.396 4.631-16.696 3.185-2.186-1.375-2.498-4.753-2.375-7.345l2.024-42.615c3.635-3.531 6.947-6.795 10.164-9.964 28.507-28.086 37.109-36.565 66.867-30.013 19.384 4.268 48.737 8.628 82.643-1.516l51.473 89.153zm98.833-29.268c-.756 2.82-2.55 5.169-5.054 6.614l-35.377 20.425c-2.502 1.445-5.433 1.827-8.255 1.069-2.82-.756-5.169-2.551-6.615-5.054l-62.088-107.539c-3.001-5.198-1.214-11.869 3.984-14.87l35.377-20.425c1.661-.96 3.511-1.449 5.392-1.449.953 0 1.914.126 2.863.38 2.82.756 5.169 2.55 6.614 5.054l62.088 107.539c1.447 2.503 1.826 5.436 1.071 8.256zm-146.333 186.951c1.794 2.1 1.547 5.256-.552 7.05-11.085 9.476-23.64 16.978-37.314 22.298-15.255 5.937-31.225 8.839-47.09 8.839-26.122 0-51.964-7.865-73.898-23.009l.52 6.45c.222 2.752-1.83 5.163-4.583 5.385-2.756.247-5.164-1.829-5.385-4.582l-1.416-17.569c-.012-.153-.018-.307-.016-.458 0-.001 0-.001 0-.001 0-.004 0-.009 0-.014 0-.001 0-.001 0-.002 0-.004 0-.008 0-.012 0-.001 0-.003 0-.004 0-.003 0-.006 0-.009 0-.002 0-.004 0-.006s0-.004 0-.006c.022-1.041.368-2.081 1.052-2.96.108-.14.224-.273.347-.4.591-.615 1.31-1.049 2.078-1.294l16.431-5.525c2.618-.881 5.453.528 6.333 3.146.88 2.617-.528 5.453-3.146 6.333l-7.6 2.556c32.692 23.102 75.072 28.481 112.745 13.824 12.625-4.913 24.213-11.837 34.443-20.581 2.101-1.794 5.257-1.547 7.051.551zm-170.007-337.805c-1.794-2.099-1.547-5.255.552-7.049 11.092-9.479 23.647-16.982 37.316-22.301 40.373-15.708 85.735-10.169 120.989 14.171l-.52-6.45c-.222-2.752 1.83-5.163 4.583-5.385 2.755-.238 5.163 1.83 5.385 4.582l1.416 17.568c.016.193.02.387.013.577v.003.01.007.005c-.04 1.005-.381 2.004-1.038 2.854-.114.148-.237.29-.368.425-.59.61-1.305 1.041-2.07 1.284l-16.429 5.526c-.529.178-1.066.262-1.595.262-2.088 0-4.036-1.318-4.738-3.407-.88-2.617.527-5.452 3.145-6.333l7.6-2.556c-32.691-23.1-75.072-28.481-112.746-13.824-12.621 4.91-24.209 11.836-34.445 20.583-2.101 1.797-5.256 1.547-7.05-.552z"/></svg>