<svg xmlns="http://www.w3.org/2000/svg" version="1.1" xmlns:xlink="http://www.w3.org/1999/xlink" width="512" height="512" x="0" y="0" viewBox="0 0 5000 5000" style="enable-background:new 0 0 512 512" xml:space="preserve" class=""><g><linearGradient id="a" x1="928.668" x2="3419.812" y1="1606.158" y2="4097.301" gradientUnits="userSpaceOnUse"><stop stop-opacity="1" stop-color="#010101" offset="0"></stop><stop stop-opacity="1" stop-color="#010101" offset="1"></stop></linearGradient><path fill="url(#a)" d="m3846.01 3655.905-702.702 317.589a413.06 413.06 0 0 1-117.901 33.372l-1010.273 128.991a606.21 606.21 0 0 1-76.848 4.902c-40.752 0-81.402-4.132-121.553-12.367l-626.728-128.503c-84.276-17.278-170.157-19.775-255.287-7.381-15.85 2.348-30.405-8.629-32.696-24.395s8.629-30.405 24.395-32.696c91.778-13.334 184.345-10.658 275.175 7.963l626.728 128.502c59.157 12.132 119.554 14.385 179.509 6.751l1010.263-128.991a355.852 355.852 0 0 0 101.459-28.715l702.703-317.589c39.175-17.71 64.49-56.932 64.49-99.919 0-34.527-15.756-66.331-43.232-87.243-27.466-20.921-62.322-27.635-95.6-18.451l-680.307 187.857a413.47 413.47 0 0 1-110.061 14.921h-541.728c-8.718 11.278-18.382 21.985-29.495 31.616-39.495 34.246-89.628 52.312-140.428 52.312a213.195 213.195 0 0 1-71.026-12.16c-133.905-47.289-362.161-127.384-440.347-154.81-15.03-5.272-22.94-21.728-17.672-36.759 5.27-15.037 21.732-22.954 36.768-17.68 78.216 27.435 306.531 107.548 440.464 154.843 52.856 18.686 112.032 7.427 154.456-29.334 38.574-33.447 57.89-81.768 52.969-132.596-4.911-50.819-33.128-94.558-77.402-119.986l-552.913-317.561c-86.36-49.607-190.317-60.725-285.194-30.48l-546.64 174.185c-15.165 4.826-31.41-3.54-36.246-18.724s3.549-31.409 18.724-36.245l546.64-174.185c28.766-9.162 58.251-14.978 87.898-17.665-43.314-122.042-65.474-250.113-65.474-381.43 0-445.744 261.737-854.06 666.804-1040.246 14.489-6.667 31.607-.319 38.255 14.16 6.657 14.479.319 31.607-14.16 38.255-384.662 176.805-633.207 564.556-633.207 987.831 0 131.261 23.334 259.074 68.846 380.352 63.613 3.628 126.256 21.861 182.487 54.162l552.913 317.561c60.688 34.856 99.356 94.802 106.098 164.466 3.106 32.127-1.154 63.418-11.506 92.426h510.116c32.001 0 63.862-4.32 94.698-12.836l47.87-13.219c.038-.014.066-.045.103-.059 378.052-179.03 622.22-564.594 622.22-982.854 0-542.865-405.245-1006.038-942.636-1077.374-15.794-2.094-26.902-16.592-24.799-32.386 2.094-15.803 16.583-27.015 32.386-24.799 565.956 75.13 992.741 562.885 992.741 1134.559 0 368.121-179.708 712.084-471.129 925.232l423.55-116.958c50.8-14.038 103.976-3.765 145.912 28.151 41.927 31.917 65.974 80.454 65.974 133.151.002 65.61-38.629 125.462-98.424 152.486zM2612.348 1386.609c28.358 256.714-98.426 503.709-323.007 629.244-111.854 62.547-181.34 186.251-181.34 322.839v12.799c0 71.486-58.162 129.639-129.648 129.639s-129.648-58.152-129.648-129.639v-12.799c0-230.375 120.361-440.796 314.106-549.138 133.404-74.585 208.703-221.586 191.838-374.512-19.175-173.565-159.067-313.458-332.632-332.642-109.938-11.982-215.069 21.409-296.199 94.097-59.796 53.57-101.769 126.38-118.192 205.022-13.033 62.434-65.411 106.032-127.366 106.032-39.194 0-75.937-17.409-100.821-47.776-24.48-29.87-34.198-68.547-26.668-106.126 26.949-134.493 97.994-258.902 200.045-350.304 134.991-120.906 316.35-178.767 497.643-158.635 293.222 32.348 529.541 268.667 561.889 561.899zm-57.335 6.329c-29.419-266.611-244.281-481.473-510.892-510.892-165.02-18.264-330.022 34.302-452.815 144.268-92.82 83.149-157.452 196.317-181.969 318.679-4.113 20.555 1.249 41.767 14.724 58.218 13.878 16.93 34.368 26.649 56.199 26.649 34.349 0 63.495-24.724 70.895-60.134 18.911-90.604 67.27-174.485 136.165-236.197 81.045-72.604 182.833-111.225 290.818-111.225 16.602 0 33.344.911 50.18 2.751 200.223 22.123 361.563 183.472 383.667 383.658 19.418 176.025-67.336 345.271-221.022 431.19-175.528 98.163-284.565 289.288-284.565 498.789v12.799c0 39.673 32.283 71.946 71.956 71.946s71.956-32.273 71.956-71.946v-12.799c0-157.461 80.801-300.462 210.881-373.188 204.298-114.211 319.626-338.952 293.822-572.566zm-431.18 1292.536c0 79.43-64.613 144.043-144.043 144.043s-144.043-64.613-144.043-144.043 64.613-144.052 144.043-144.052 144.043 64.622 144.043 144.052zm-57.693 0c0-47.617-38.734-86.36-86.351-86.36s-86.351 38.743-86.351 86.36 38.734 86.351 86.351 86.351 86.351-38.734 86.351-86.351zm1338.604-403.17c0 82.96-32.087 161.03-90.2 220.377 17.398 11.611 33.947 25.013 49.288 40.356 126.127 126.117 126.127 331.336 0 457.454-63.054 63.063-145.893 94.595-228.722 94.595s-165.668-31.532-228.722-94.595c-15.305-15.303-28.67-31.812-40.26-49.162l-51.565 51.565c-59.58 59.58-138.757 92.388-222.966 92.388-84.219 0-163.358-32.818-222.844-92.407-59.552-59.448-92.37-138.587-92.37-222.807 0-84.21 32.809-163.386 92.388-222.966l497.699-497.699c59.58-59.58 138.756-92.388 222.966-92.388 84.219 0 163.358 32.818 222.844 92.407 59.618 59.627 92.464 138.785 92.464 222.882zm-567.121 615.949c-41.452-97.839-32.737-211.984 26.379-302.828l-225.986-225.986-228.455 228.455c-48.678 48.687-75.486 113.385-75.486 182.176 0 68.782 26.799 133.423 75.468 182.016 48.631 48.706 113.272 75.505 182.054 75.505 68.792 0 133.489-26.809 182.176-75.486zm485.419-314.426c-51.814-51.814-119.873-77.712-187.932-77.712s-136.118 25.898-187.932 77.712c-83.669 83.668-99.693 209.666-48.255 309.655.021.051.047.096.068.148 12.261 23.799 28.268 46.151 48.187 66.071 103.628 103.628 272.236 103.628 375.864 0 103.628-103.629 103.628-272.245 0-375.874zm-61.44-109.552 9.87-9.87c48.734-48.744 75.58-113.413 75.58-182.101s-26.846-133.357-75.58-182.11c-48.612-48.687-113.253-75.486-182.035-75.486-68.791 0-133.489 26.809-182.176 75.486l-228.455 228.455 221.318 221.318c2.148-2.275 4.037-4.703 6.263-6.93 95.875-95.89 237.412-118.675 355.215-68.762zm-271.887 442.889c5.634 5.634 13.014 8.451 20.395 8.451s14.761-2.817 20.395-8.451l250-250c11.268-11.259 11.268-29.532 0-40.79-11.268-11.268-29.522-11.268-40.79 0l-250 250c-11.268 11.258-11.268 29.531 0 40.79z" opacity="1" data-original="url(#a)"></path></g></svg>