<svg width="60" height="60" viewBox="0 0 60 60" fill="none" xmlns="http://www.w3.org/2000/svg">
    <g clip-path="url(#clip0_230_2793)">
    <path d="M11.1328 37.7695C9.84918 38.2773 8.74986 39.1627 7.98013 40.3086C7.21041 41.4545 6.80651 42.807 6.82183 44.1873V56.1237C6.82298 57.1513 7.23171 58.1366 7.95837 58.8633C8.68502 59.59 9.67025 59.9988 10.6979 60H49.3021C50.3298 59.9988 51.315 59.59 52.0417 58.8633C52.7684 58.1367 53.1772 57.1514 53.1784 56.1237V44.1871C53.1936 42.8067 52.7897 41.4543 52.0199 40.3084C51.2502 39.1626 50.1508 38.2773 48.8672 37.7695L36.6309 32.7705L36.6504 29.6575C38.0087 28.6309 39.1104 27.3034 39.869 25.7793C40.6277 24.2551 41.0226 22.5757 41.0227 20.8732V20.5255H42.2215C43.078 20.5256 43.9055 20.215 44.5505 19.6513C45.1954 19.0876 45.6139 18.3091 45.7284 17.4603C45.8429 16.6114 45.6456 15.7498 45.1731 15.0354C44.7006 14.321 43.985 13.8022 43.159 13.5754V13.159C43.159 9.66901 41.7726 6.32197 39.3048 3.85418C36.837 1.38639 33.49 0 30 0C26.51 0 23.163 1.38639 20.6952 3.85418C18.2274 6.32197 16.841 9.66901 16.841 13.159V13.9305C16.0151 14.1575 15.2996 14.6763 14.8271 15.3907C14.3547 16.1051 14.1574 16.9666 14.2719 17.8155C14.3864 18.6643 14.8049 19.4428 15.4497 20.0065C16.0946 20.5702 16.922 20.8808 17.7785 20.8808H18.9775C18.9786 22.5822 19.374 24.2601 20.1326 25.783C20.8912 27.3059 21.9923 28.6323 23.3496 29.6582L23.3691 32.7711L11.1328 37.7695ZM48.1587 39.5052C49.0951 39.8757 49.897 40.5217 50.4586 41.3577C51.0201 42.1936 51.3147 43.1803 51.3036 44.1873V56.1237C51.3029 56.6543 51.0918 57.163 50.7166 57.5382C50.3414 57.9133 49.8327 58.1244 49.3021 58.125H44.1797V48.9191C44.1797 48.6705 44.0809 48.432 43.9051 48.2562C43.7293 48.0804 43.4908 47.9816 43.2422 47.9816C42.9935 47.9816 42.7551 48.0804 42.5793 48.2562C42.4035 48.432 42.3047 48.6705 42.3047 48.9191V58.125H17.6953V48.9191C17.6953 48.6705 17.5965 48.432 17.4207 48.2562C17.2449 48.0804 17.0064 47.9816 16.7578 47.9816C16.5092 47.9816 16.2707 48.0804 16.0949 48.2562C15.9191 48.432 15.8203 48.6705 15.8203 48.9191V58.125H10.6979C10.1673 58.1243 9.6587 57.9132 9.28353 57.5381C8.90835 57.1629 8.69728 56.6542 8.6966 56.1237V44.1871C8.68543 43.1801 8.98008 42.1934 9.54161 41.3574C10.1031 40.5214 10.9051 39.8755 11.8416 39.505L24.1241 34.4875L29.377 39.1595C29.5487 39.3121 29.7703 39.3964 30 39.3964C30.2297 39.3964 30.4513 39.3121 30.623 39.1595L35.8759 34.4875L48.1587 39.5052ZM43.8851 16.9869C43.8847 17.4281 43.7093 17.8512 43.3973 18.1632C43.0853 18.4752 42.6622 18.6506 42.221 18.651H41.0227V15.3233H42.2215C42.6625 15.3238 43.0854 15.4992 43.3973 15.8111C43.7091 16.123 43.8846 16.5459 43.8851 16.9869ZM30 1.875C32.9916 1.87841 35.8598 3.06835 37.9752 5.18377C40.0906 7.29919 41.2806 10.1673 41.284 13.159V13.4483H39.3387C37.5383 12.9534 37.1039 12.1421 36.4528 10.9267C36.2701 10.5855 36.0812 10.2328 35.8484 9.86027C35.7205 9.65578 35.5187 9.50842 35.285 9.44884C35.0513 9.38926 34.8037 9.42203 34.5935 9.54035C26.9883 13.8224 26.25 13.8218 19.1784 13.8055L18.716 13.8046V13.159C18.7194 10.1673 19.9094 7.29919 22.0248 5.18377C24.1402 3.06835 27.0083 1.87841 30 1.875ZM16.1149 17.3421C16.1153 16.9009 16.2907 16.4778 16.6027 16.1659C16.9147 15.8539 17.3378 15.6784 17.779 15.678C18.1978 15.678 18.596 15.6787 18.9778 15.6796V19.0054H17.7785C17.3375 19.0048 16.9147 18.8294 16.6029 18.5176C16.291 18.2058 16.1155 17.7831 16.1149 17.3421ZM20.8523 20.8732V15.6818C26.3855 15.6662 28.0242 15.3478 34.7021 11.6292C34.7352 11.6905 34.7679 11.7514 34.8003 11.8121C35.5332 13.1807 36.2911 14.5957 38.9807 15.2936C39.0354 15.3071 39.0913 15.3157 39.1477 15.3193V20.874C39.1477 23.3001 38.1839 25.6269 36.4684 27.3424C34.7528 29.0579 32.4261 30.0217 30 30.0217C27.5739 30.0217 25.2471 29.0579 23.5316 27.3424C21.8161 25.6269 20.8523 23.3001 20.8523 20.874V20.8732ZM30 31.8959C31.6509 31.8978 33.2808 31.5267 34.7681 30.8102L34.7546 32.9755L30 37.2043L25.2453 32.9755L25.2319 30.8102C26.7191 31.5267 28.3491 31.8979 30 31.8959ZM23.6184 18.6438C23.5599 18.7521 23.4806 18.8479 23.3851 18.9256C23.2896 19.0032 23.1797 19.0613 23.0617 19.0965C22.9437 19.1317 22.82 19.1434 22.6975 19.1308C22.575 19.1181 22.4563 19.0815 22.3479 19.023C22.2396 18.9645 22.1439 18.8852 22.0662 18.7897C21.9885 18.6941 21.9304 18.5842 21.8952 18.4663C21.86 18.3483 21.8484 18.2245 21.861 18.1021C21.8736 17.9796 21.9103 17.8608 21.9688 17.7525C22.223 17.2822 22.5996 16.8894 23.0587 16.6157C23.5178 16.3419 24.0425 16.1974 24.577 16.1974C25.1116 16.1974 25.6362 16.3419 26.0954 16.6157C26.5545 16.8894 26.9311 17.2822 27.1853 17.7525C27.2449 17.8609 27.2825 17.98 27.2959 18.103C27.3093 18.226 27.2982 18.3504 27.2633 18.4691C27.2284 18.5878 27.1703 18.6984 27.0924 18.7945C27.0146 18.8907 26.9184 18.9704 26.8096 19.0293C26.7007 19.0881 26.5813 19.1248 26.4582 19.1372C26.3352 19.1497 26.2108 19.1376 26.0924 19.1018C25.974 19.066 25.8638 19.0071 25.7683 18.9285C25.6728 18.8499 25.5937 18.7531 25.5357 18.6438C25.4423 18.471 25.3039 18.3267 25.1351 18.2261C24.9664 18.1255 24.7735 18.0724 24.5771 18.0724C24.3806 18.0724 24.1878 18.1255 24.0191 18.2261C23.8503 18.3267 23.7119 18.471 23.6184 18.6438ZM32.8146 17.7525C33.0688 17.2822 33.4454 16.8894 33.9045 16.6157C34.3637 16.3419 34.8883 16.1974 35.4228 16.1974C35.9574 16.1974 36.482 16.3419 36.9412 16.6157C37.4003 16.8894 37.7769 17.2822 38.0311 17.7525C38.0896 17.8608 38.1262 17.9796 38.1389 18.1021C38.1515 18.2245 38.1398 18.3483 38.1046 18.4663C38.0694 18.5842 38.0113 18.6941 37.9337 18.7897C37.856 18.8852 37.7602 18.9645 37.6519 19.023C37.5436 19.0815 37.4248 19.1181 37.3024 19.1308C37.1799 19.1434 37.0561 19.1317 36.9382 19.0965C36.8202 19.0613 36.7103 19.0032 36.6148 18.9256C36.5193 18.8479 36.44 18.7521 36.3814 18.6438C36.288 18.471 36.1496 18.3267 35.9808 18.2262C35.8121 18.1256 35.6193 18.0725 35.4228 18.0725C35.2264 18.0725 35.0336 18.1256 34.8649 18.2262C34.6961 18.3267 34.5577 18.471 34.4643 18.6438C34.4057 18.7521 34.3264 18.8479 34.2309 18.9256C34.1354 19.0032 34.0255 19.0613 33.9075 19.0965C33.7896 19.1317 33.6658 19.1434 33.5433 19.1308C33.4209 19.1181 33.3021 19.0815 33.1938 19.023C33.0854 18.9645 32.9897 18.8852 32.912 18.7897C32.8344 18.6941 32.7763 18.5842 32.7411 18.4663C32.7059 18.3483 32.6942 18.2245 32.7068 18.1021C32.7195 17.9796 32.7561 17.8608 32.8146 17.7525ZM26.9051 23.2486C27.119 23.122 27.3745 23.0855 27.6154 23.1472C27.8562 23.209 28.0627 23.3638 28.1893 23.5778C28.5416 24.1727 29.2353 24.5423 30 24.5423C30.7646 24.5423 31.4583 24.1727 31.8105 23.5778C31.9383 23.3661 32.1445 23.2136 32.3843 23.1532C32.624 23.0929 32.8779 23.1297 33.0906 23.2556C33.3034 23.3816 33.4578 23.5864 33.5202 23.8256C33.5826 24.0648 33.548 24.319 33.424 24.5329C32.736 25.6952 31.4238 26.4173 30 26.4173C28.5762 26.4173 27.2639 25.6952 26.5759 24.5329C26.4494 24.3189 26.413 24.0635 26.4747 23.8228C26.5365 23.5821 26.6913 23.3757 26.9051 23.2491V23.2486ZM35.0255 41.8479C33.973 42.2112 33.2603 43.1597 33.1656 44.3239C32.9692 46.7364 35.9135 49.027 37.0646 49.7061C37.209 49.7913 37.3735 49.8362 37.541 49.8362C37.7086 49.8362 37.8731 49.7913 38.0174 49.7061C39.1685 49.0264 42.1129 46.7364 41.9164 44.3241C41.8216 43.1597 41.109 42.2109 40.0566 41.8479C39.6391 41.709 39.1954 41.6674 38.7594 41.7263C38.3234 41.7852 37.9066 41.943 37.541 42.1877C37.1754 41.9431 36.7586 41.7853 36.3226 41.7265C35.8866 41.6677 35.4429 41.7094 35.0255 41.8484V41.8479ZM37.541 44.3422C37.6705 44.3422 37.7985 44.3154 37.9171 44.2635C38.0356 44.2115 38.1422 44.1356 38.23 44.0405C38.5978 43.642 39.0523 43.4849 39.4453 43.6205C39.7886 43.7388 40.0137 44.0588 40.0476 44.4759C40.1297 45.4795 38.7453 46.9339 37.541 47.7819C36.3366 46.9339 34.9527 45.4795 35.0344 44.4759C35.0684 44.0585 35.2935 43.7386 35.6367 43.6205C35.7292 43.5887 35.8263 43.5725 35.9241 43.5728C36.2405 43.5728 36.5713 43.7368 36.8521 44.0405C36.9398 44.1357 37.0463 44.2117 37.1649 44.2637C37.2835 44.3157 37.4115 44.3426 37.541 44.3427V44.3422Z" fill="white"></path>
    </g>
    <defs>
    <clipPath id="clip0_230_2793">
    <rect width="60" height="60" fill="white"></rect>
    </clipPath>
    </defs>
</svg>