<svg width="60" height="60" viewBox="0 0 60 60" fill="none" xmlns="http://www.w3.org/2000/svg">
    <path d="M29.9797 33.3057C22.667 33.0673 20.9132 26.8062 20.5378 24.7849C19.8339 24.6217 19.2066 24.2233 18.7597 23.6554C18.2496 22.9524 18.0129 22.0877 18.0941 21.223C18.0361 20.757 18.0766 20.2841 18.2129 19.8348C18.3492 19.3855 18.5783 18.9698 18.8854 18.6146C19.0587 18.4369 19.258 18.2865 19.4765 18.1686C18.1173 15.9743 17.4479 13.4227 17.5549 10.8438C18.4013 4.79512 23.2759 4.20647 24.8027 4.17242C25.5054 3.35514 26.3838 2.70736 27.3722 2.27755C29.2236 1.53074 31.27 1.41672 33.193 1.95323C36.973 2.93999 39.4938 4.83242 40.6897 7.57864C42.3924 11.4819 40.8989 15.9746 40.0411 17.9919C40.3682 18.0982 40.6697 18.2713 40.9265 18.5003C41.2758 18.8549 41.5391 19.2851 41.696 19.7576C41.8528 20.23 41.8992 20.7322 41.8314 21.2254C41.9132 22.0901 41.6768 22.955 41.1665 23.6578C40.7192 24.2256 40.0917 24.624 39.3876 24.7873C39.0122 26.8062 37.2624 33.0673 29.9797 33.3057ZM20.8314 19.4651C20.5438 19.4517 20.2625 19.5519 20.0481 19.744C19.8997 19.9519 19.794 20.1871 19.7371 20.4361C19.6801 20.6851 19.6731 20.9429 19.7165 21.1946C19.7199 21.2487 19.718 21.303 19.7108 21.3567C19.6667 21.8221 19.7869 22.2883 20.0505 22.6743C20.215 22.858 20.4144 23.0069 20.6372 23.1125C20.86 23.218 21.1016 23.278 21.3478 23.2889C21.5332 23.3108 21.7054 23.396 21.8352 23.5302C21.9651 23.6643 22.0447 23.8391 22.0605 24.0251C22.0873 24.3267 22.8065 31.4497 29.9814 31.6849C37.1165 31.4497 37.8389 24.3267 37.8657 24.0235C37.8819 23.8378 37.9617 23.6633 38.0915 23.5295C38.2213 23.3957 38.3932 23.3108 38.5784 23.2889C38.8247 23.2781 39.0663 23.2182 39.2891 23.1126C39.5119 23.0071 39.7113 22.858 39.8757 22.6743C40.1404 22.2863 40.2607 21.8178 40.2154 21.3503C40.2086 21.2981 40.2067 21.2455 40.2097 21.193C40.2536 20.933 40.2437 20.6668 40.1808 20.4108C40.118 20.1548 40.0033 19.9144 39.8441 19.7043C39.5908 19.5178 39.2757 19.4354 38.9635 19.474C38.8135 19.5007 38.659 19.4845 38.5177 19.4273C38.3764 19.3701 38.2541 19.2743 38.1649 19.1508C38.0756 19.0273 38.0229 18.8812 38.0128 18.7291C38.0028 18.577 38.0358 18.4252 38.1081 18.2911C38.1381 18.2343 41.1081 12.5976 39.1995 8.21674C38.2111 5.95296 36.0535 4.37269 32.7851 3.51972C31.2143 3.07517 29.5407 3.16066 28.0232 3.76296C27.16 4.13489 26.4075 4.72367 25.8389 5.47215C25.7571 5.58349 25.6479 5.67184 25.5219 5.72865C25.3959 5.78547 25.2574 5.80883 25.1197 5.79647C24.9097 5.77945 19.9451 5.45837 19.1668 11.0084C19.1668 11.0084 18.9422 15.4232 21.4995 18.0989C21.6109 18.2154 21.6851 18.3625 21.7125 18.5214C21.74 18.6802 21.7194 18.8437 21.6535 18.9908C21.5928 19.1417 21.4857 19.2694 21.3477 19.3556C21.2097 19.4417 21.0479 19.4817 20.8857 19.47L20.8314 19.4651Z" fill="white"></path>
    <path d="M38.8224 19.4845C38.6132 19.4847 38.4119 19.404 38.2608 19.2592C38.1097 19.1144 38.0204 18.9169 38.0116 18.7078C38.0019 18.4978 37.7505 13.5997 34.0938 13.1286C32.4212 13.341 30.7229 13.2086 29.1035 12.7395C27.4841 12.2704 25.9779 11.4745 24.6778 10.401C23.6441 11.1786 21.2619 13.5421 21.72 18.5829C21.7261 18.7892 21.6532 18.9901 21.5162 19.1446C21.3793 19.299 21.1886 19.3954 20.9831 19.4142C20.7775 19.4329 20.5725 19.3725 20.4099 19.2453C20.2474 19.1181 20.1394 18.9337 20.1081 18.7297C19.4359 11.3343 24.1849 8.76723 24.3868 8.66182C24.537 8.58339 24.7081 8.55404 24.876 8.57789C25.0438 8.60174 25.1999 8.6776 25.3224 8.7948C26.4781 9.84155 27.8462 10.6264 29.3332 11.0956C30.8202 11.5648 32.391 11.7073 33.9381 11.5134C34.0123 11.5014 34.0878 11.4987 34.1627 11.5053C38.2849 11.9343 39.5441 16.3629 39.6332 18.6405C39.6416 18.855 39.5645 19.0641 39.4189 19.2219C39.2733 19.3797 39.071 19.4732 38.8565 19.4821L38.8224 19.4845Z" fill="white"></path>
    <path d="M52.7749 58.3784H7.22514C7.01009 58.3784 6.80386 58.2929 6.65181 58.1409C6.49975 57.9888 6.41432 57.7826 6.41432 57.5676V48.5286C6.42012 45.6718 7.55862 42.9338 9.58015 40.9152C11.6017 38.8965 14.3413 37.762 17.1981 37.7603H18.7549C18.9699 37.7603 19.1761 37.8457 19.3282 37.9977C19.4803 38.1498 19.5657 38.356 19.5657 38.5711C19.5657 38.7861 19.4803 38.9923 19.3282 39.1444C19.1761 39.2965 18.9699 39.3819 18.7549 39.3819H17.1981C14.7712 39.3832 12.4439 40.3468 10.7263 42.0614C9.00882 43.776 8.04131 46.1017 8.03595 48.5286V56.7567H51.9641V48.5286C51.9613 46.1036 50.9967 43.7787 49.282 42.064C47.5672 40.3492 45.2423 39.3847 42.8173 39.3819H41.1486C40.9336 39.3819 40.7274 39.2965 40.5753 39.1444C40.4233 38.9923 40.3378 38.7861 40.3378 38.5711C40.3378 38.356 40.4233 38.1498 40.5753 37.9977C40.7274 37.8457 40.9336 37.7603 41.1486 37.7603H42.8173C45.672 37.7643 48.4086 38.9002 50.4272 40.9187C52.4458 42.9373 53.5816 45.6739 53.5857 48.5286V57.5676C53.5857 57.7826 53.5003 57.9888 53.3482 58.1409C53.1961 58.2929 52.9899 58.3784 52.7749 58.3784Z" fill="white"></path>
    <path d="M32.7097 58.3784C32.593 58.3784 32.4777 58.3532 32.3716 58.3046C32.2655 58.2559 32.1712 58.185 32.0951 58.0965C32.0189 58.0081 31.9628 57.9042 31.9305 57.7921C31.8982 57.68 31.8905 57.5622 31.9078 57.4468L35.1892 35.7308C35.2066 35.6159 35.2484 35.5061 35.312 35.4088C35.3755 35.3115 35.4592 35.229 35.5574 35.1669C35.6555 35.1048 35.7659 35.0645 35.8811 35.0487C35.9962 35.033 36.1133 35.0422 36.2246 35.0757L41.8873 36.7824C42.0001 36.8164 42.1041 36.8746 42.1921 36.9529C42.2801 37.0312 42.35 37.1277 42.3969 37.2357C42.4438 37.3438 42.4666 37.4607 42.4638 37.5785C42.4609 37.6962 42.4324 37.8119 42.3803 37.9176L40.1295 42.4338L41.4349 43.8989C41.5506 44.0297 41.6209 44.1943 41.6355 44.3683C41.6502 44.5423 41.6082 44.7164 41.5159 44.8646L33.3989 57.9941C33.3263 58.1115 33.2248 58.2085 33.1042 58.2757C32.9836 58.343 32.8478 58.3783 32.7097 58.3784ZM36.6535 36.8984L34.1035 53.7738L39.8222 44.5305L38.5549 43.1076C38.447 42.9867 38.3779 42.8362 38.3564 42.6757C38.3348 42.5151 38.3619 42.3518 38.4341 42.2068L40.5 38.0603L36.6535 36.8984Z" fill="white"></path>
    <path d="M27.197 58.3784C27.0588 58.3785 26.9228 58.3432 26.8021 58.2759C26.6813 58.2087 26.5797 58.1116 26.507 57.9941L18.3876 44.867C18.2953 44.7188 18.2534 44.5448 18.268 44.3708C18.2826 44.1968 18.353 44.0321 18.4686 43.9014L19.7741 42.4362L17.5232 37.92C17.4711 37.8144 17.4426 37.6987 17.4397 37.5809C17.4369 37.4632 17.4597 37.3462 17.5066 37.2382C17.5535 37.1301 17.6234 37.0336 17.7114 36.9553C17.7994 36.8771 17.9034 36.8189 18.0162 36.7849L23.6789 35.0781C23.7901 35.0448 23.9072 35.0357 24.0222 35.0515C24.1373 35.0673 24.2475 35.1076 24.3456 35.1697C24.4437 35.2318 24.5273 35.3143 24.5908 35.4115C24.6543 35.5087 24.6961 35.6185 24.7135 35.7333L27.9965 57.4492C28.0135 57.5642 28.0055 57.6815 27.9732 57.7932C27.9408 57.9049 27.8848 58.0083 27.809 58.0964C27.7332 58.1845 27.6393 58.2553 27.5337 58.304C27.4281 58.3526 27.3133 58.378 27.197 58.3784ZM20.0846 44.5281L25.8032 53.7714L23.2532 36.8984L19.4068 38.0579L21.4719 42.2043C21.5442 42.3493 21.5713 42.5126 21.55 42.6731C21.5286 42.8337 21.4596 42.9842 21.3519 43.1052L20.0846 44.5281Z" fill="white"></path>
    <path d="M30.0138 43.2608C28.2606 43.2595 26.5091 43.1534 24.7686 42.9429C24.6607 42.9331 24.5559 42.9016 24.4603 42.8505C24.3647 42.7994 24.2803 42.7297 24.2122 42.6454C24.144 42.5611 24.0935 42.464 24.0635 42.3599C24.0335 42.2557 24.0247 42.1466 24.0376 42.039C24.0505 41.9314 24.0848 41.8274 24.1386 41.7333C24.1923 41.6392 24.2644 41.5568 24.3506 41.4911C24.4367 41.4253 24.5352 41.3775 24.6401 41.3504C24.7451 41.3233 24.8544 41.3176 24.9616 41.3335C28.2754 41.741 31.6265 41.741 34.9403 41.3335C35.1516 41.3106 35.3635 41.3717 35.5302 41.5035C35.697 41.6353 35.8053 41.8273 35.8319 42.0382C35.8585 42.2491 35.8012 42.462 35.6723 42.6311C35.5435 42.8001 35.3534 42.9118 35.143 42.9421C33.4416 43.1556 31.7285 43.2621 30.0138 43.2608Z" fill="white"></path>
    <path d="M35.9927 36.6623C35.8665 36.6619 35.7421 36.6319 35.6295 36.5749C35.5169 36.5179 35.4192 36.4354 35.3441 36.334C34.1392 34.705 33.9211 31.4764 33.9008 31.114C33.8884 30.8994 33.9617 30.6886 34.1046 30.5281C34.2476 30.3675 34.4484 30.2703 34.663 30.2577C34.877 30.2477 35.0864 30.3218 35.2465 30.4643C35.4065 30.6067 35.5044 30.8062 35.5192 31.0199C35.5686 31.8729 35.8687 34.3175 36.647 35.3699C36.736 35.4904 36.7898 35.6331 36.8026 35.7823C36.8154 35.9315 36.7866 36.0814 36.7194 36.2152C36.6523 36.3491 36.5493 36.4617 36.4221 36.5406C36.2948 36.6195 36.1481 36.6617 35.9984 36.6623H35.9927Z" fill="white"></path>
    <path d="M23.9141 36.6625C23.7643 36.6618 23.6177 36.6197 23.4904 36.5407C23.3631 36.4618 23.2602 36.3492 23.193 36.2154C23.1258 36.0815 23.097 35.9317 23.1098 35.7825C23.1226 35.6333 23.1764 35.4905 23.2654 35.37C24.0454 34.316 24.3446 31.8722 24.3941 31.02C24.4002 30.9136 24.4273 30.8093 24.4738 30.7133C24.5202 30.6173 24.5851 30.5314 24.6648 30.4605C24.7444 30.3896 24.8373 30.335 24.938 30.3C25.0388 30.2649 25.1454 30.2501 25.2519 30.2562C25.3584 30.2624 25.4626 30.2895 25.5586 30.336C25.6546 30.3824 25.7405 30.4473 25.8114 30.527C25.8824 30.6066 25.9369 30.6995 25.972 30.8002C26.007 30.901 26.0219 31.0076 26.0157 31.1141C25.9954 31.4765 25.7724 34.7052 24.5724 36.3341C24.4964 36.4369 24.3971 36.5202 24.2826 36.5772C24.1682 36.6343 24.0419 36.6635 23.9141 36.6625Z" fill="white"></path>
    <path d="M46.3419 47.0142C46.1309 47.0143 45.9281 46.9321 45.7767 46.7851C45.6253 46.6381 45.5372 46.4378 45.5311 46.2269C45.3795 40.9469 43.3719 39.2855 43.3524 39.2693C43.1849 39.1363 43.0763 38.9429 43.0499 38.7306C43.0235 38.5183 43.0815 38.3042 43.2114 38.1342C43.3403 37.9656 43.5306 37.8547 43.7408 37.8255C43.9511 37.7964 44.1644 37.8513 44.3343 37.9785C44.4414 38.0596 46.9751 40.0274 47.1527 46.1799C47.1588 46.3946 47.0794 46.6031 46.9319 46.7594C46.7845 46.9156 46.581 47.007 46.3662 47.0134L46.3419 47.0142Z" fill="white"></path>
    <path d="M46.3459 51.8011C45.712 51.8013 45.0922 51.6135 44.565 51.2614C44.0379 50.9093 43.6269 50.4088 43.3842 49.8231C43.1415 49.2375 43.0779 48.593 43.2015 47.9712C43.3251 47.3494 43.6303 46.7782 44.0785 46.3299C44.5267 45.8816 45.0978 45.5763 45.7195 45.4525C46.3413 45.3288 46.9858 45.3922 47.5715 45.6348C48.1572 45.8773 48.6578 46.2881 49.0101 46.8152C49.3623 47.3423 49.5503 47.9621 49.5503 48.596C49.5494 49.4457 49.2116 50.2603 48.6108 50.8611C48.0101 51.462 47.1956 51.8001 46.3459 51.8011ZM46.3459 47.0125C46.0327 47.0123 45.7265 47.1051 45.466 47.279C45.2055 47.4529 45.0024 47.7001 44.8824 47.9895C44.7624 48.2788 44.7309 48.5972 44.792 48.9044C44.853 49.2117 45.0037 49.4939 45.2251 49.7154C45.4466 49.937 45.7287 50.0879 46.0359 50.149C46.3431 50.2102 46.6615 50.1789 46.9509 50.0591C47.2403 49.9392 47.4877 49.7363 47.6617 49.4758C47.8358 49.2154 47.9286 48.9092 47.9286 48.596C47.9282 48.1763 47.7614 47.7739 47.4647 47.4771C47.168 47.1802 46.7656 47.0131 46.3459 47.0125Z" fill="white"></path>
    <path d="M13.0395 47.014C12.834 47.0145 12.6361 46.9371 12.4856 46.7972C12.3351 46.6574 12.2432 46.4657 12.2286 46.2608C11.7868 40.0378 15.2157 38.0489 15.3616 37.967C15.5489 37.8613 15.7705 37.8343 15.9777 37.892C16.1849 37.9497 16.3607 38.0874 16.4664 38.2747C16.572 38.462 16.599 38.6836 16.5413 38.8908C16.4836 39.098 16.3459 39.2737 16.1586 39.3794C16.0354 39.4524 13.483 41.0278 13.8454 46.1464C13.8606 46.361 13.7899 46.5727 13.6489 46.7351C13.508 46.8975 13.3083 46.9972 13.0938 47.0124L13.0395 47.014Z" fill="white"></path>
    <path d="M11.3992 53.5061C11.2737 53.5067 11.1498 53.4781 11.0373 53.4227C10.9247 53.3673 10.8266 53.2865 10.7505 53.1867C10.3548 52.6669 10.0632 52.0755 9.89189 51.4451C9.5155 50.217 9.63899 48.8901 10.2355 47.7526C10.832 46.6152 11.8534 45.7591 13.0776 45.3705C13.6582 45.2072 14.2656 45.1612 14.8642 45.2353C15.4628 45.3093 16.0407 45.5019 16.5641 45.8018C17.4813 46.3317 18.2149 47.1289 18.6669 48.0869C19.119 49.0449 19.2679 50.118 19.0938 51.1629C19.0585 51.375 18.9404 51.5645 18.7655 51.6895C18.5905 51.8146 18.3731 51.8651 18.1609 51.8298C17.9488 51.7945 17.7594 51.6764 17.6343 51.5015C17.5092 51.3265 17.4588 51.1091 17.4941 50.8969C17.6131 50.181 17.512 49.4458 17.2042 48.7885C16.8964 48.1313 16.3964 47.5829 15.7703 47.2159C15.4327 47.0209 15.0596 46.8952 14.6729 46.8461C14.2861 46.7969 13.8935 46.8253 13.5178 46.9297C12.7054 47.2014 12.0328 47.7825 11.6461 48.5469C11.2593 49.3113 11.1895 50.1974 11.4519 51.0129C11.5692 51.4445 11.7691 51.8493 12.0405 52.2048C12.1319 52.325 12.1878 52.4682 12.2021 52.6185C12.2164 52.7687 12.1885 52.92 12.1215 53.0552C12.0545 53.1905 11.9511 53.3043 11.8229 53.384C11.6947 53.4636 11.5469 53.5059 11.3959 53.5061H11.3992Z" fill="white"></path>
    <path d="M18.3049 51.8425C18.2732 51.8425 18.2408 51.8425 18.2084 51.8376L17.2946 51.7298C17.1888 51.7172 17.0865 51.6839 16.9936 51.6319C16.9007 51.5798 16.8189 51.5099 16.753 51.4262C16.6871 51.3425 16.6383 51.2467 16.6094 51.1441C16.5806 51.0416 16.5722 50.9344 16.5847 50.8286C16.5973 50.7228 16.6306 50.6205 16.6827 50.5276C16.7348 50.4347 16.8046 50.3529 16.8883 50.287C17.0573 50.1539 17.2723 50.0933 17.4859 50.1187L18.3997 50.2273C18.6049 50.2518 18.7931 50.3536 18.9257 50.5121C19.0584 50.6706 19.1255 50.8737 19.1134 51.08C19.1013 51.2863 19.0108 51.4802 18.8606 51.6221C18.7103 51.7639 18.5115 51.8423 18.3049 51.8425Z" fill="white"></path>
    <path d="M11.3992 53.5135C11.2088 53.5138 11.0244 53.447 10.8783 53.325C10.7322 53.203 10.6337 53.0334 10.6 52.846C10.5664 52.6586 10.5997 52.4654 10.6943 52.3001C10.7888 52.1349 10.9385 52.0082 11.117 51.9422L12.09 51.583C12.1898 51.5457 12.296 51.5285 12.4025 51.5322C12.509 51.536 12.6137 51.5607 12.7106 51.605C12.8076 51.6492 12.8948 51.7121 12.9675 51.79C13.0401 51.868 13.0967 51.9595 13.1339 52.0593C13.1712 52.1592 13.1884 52.2653 13.1847 52.3718C13.1809 52.4783 13.1562 52.583 13.1119 52.6799C13.0677 52.7769 13.0048 52.8642 12.9269 52.9368C12.8489 53.0094 12.7574 53.066 12.6576 53.1033L11.6846 53.4633C11.5932 53.497 11.4966 53.514 11.3992 53.5135Z" fill="white"></path>
</svg>