<svg width="60" height="60" viewBox="0 0 60 60" fill="none" xmlns="http://www.w3.org/2000/svg">
    <g clip-path="url(#clip0_230_2758)">
    <path d="M0.878906 4.72172H7.33945L9.48633 6.77496L6.88031 9.38098C5.29055 10.971 5.29055 13.5581 6.88031 15.148L8.14699 16.4147L6.85441 17.7073C6.66926 17.8925 6.57633 18.1507 6.60094 18.4114C6.62555 18.6723 6.76523 18.9084 6.9818 19.0556L9.14906 20.5289C9.71871 20.9163 10.3732 21.1057 11.0244 21.1057C11.7795 21.1057 12.53 20.8508 13.138 20.3543L13.6627 20.8789C14.0433 21.2595 14.5491 21.469 15.0873 21.469C15.6254 21.469 16.1312 21.2595 16.5118 20.8788L17.703 19.6875C18.0836 19.3071 18.2931 18.8012 18.2931 18.2631C18.2931 17.7248 18.0836 17.2189 17.703 16.8387L17.1904 16.326L17.5808 15.9355L18.0935 16.4482C18.474 16.8286 18.9799 17.0381 19.518 17.0381C20.0562 17.0381 20.5621 16.8286 20.9426 16.4482L22.1339 15.2569C22.9193 14.4714 22.9193 13.1932 22.1339 12.4077L21.6212 11.895L22.0117 11.5045L22.5244 12.0172C22.9172 12.4099 23.4329 12.6061 23.9488 12.6061C24.4646 12.6061 24.9806 12.4098 25.3734 12.0172L26.5648 10.8259C27.3502 10.0405 27.3502 8.76246 26.5646 7.97672L26.0401 7.45219C26.9648 6.31992 27.0512 4.69348 26.2148 3.46324L24.7414 1.29586C24.5943 1.07918 24.3581 0.939609 24.0973 0.915C23.8384 0.890742 23.5785 0.98332 23.3931 1.16848L22.1005 2.46094L20.8339 1.19438C20.0637 0.424219 19.0397 0 17.9504 0C16.8611 0 15.8371 0.424219 15.0669 1.19438L10.7295 5.53172L8.29945 3.20766C8.13586 3.05121 7.91836 2.96391 7.69195 2.96391H0.878906C0.393398 2.96391 0 3.3573 0 3.84281C0 4.32832 0.393398 4.72172 0.878906 4.72172ZM16.46 18.0814C16.5221 18.1436 16.5353 18.2145 16.5353 18.263C16.5353 18.3115 16.5223 18.3824 16.46 18.4445C16.46 18.4445 16.4599 18.4445 16.4599 18.4446L15.2687 19.6358C15.1686 19.7361 15.0055 19.7359 14.9055 19.6358L14.3929 19.1232L15.9473 17.5688L16.46 18.0814ZM20.8909 13.6505C20.991 13.7505 20.991 13.9134 20.8909 14.0136L19.6996 15.205C19.5995 15.3052 19.4366 15.3052 19.3365 15.205L18.8238 14.6923L20.3783 13.1378L20.8909 13.6505ZM25.3218 9.58266L24.1305 10.774C24.0304 10.8739 23.8673 10.8741 23.7673 10.7741L23.2546 10.2614L24.8091 8.70691L25.3218 9.21949C25.422 9.31957 25.422 9.4827 25.3218 9.58266ZM23.8849 3.16242L24.7613 4.45137C25.1875 5.07832 25.1077 5.92242 24.5716 6.45844C23.1396 7.89047 13.4353 17.5946 12.1444 18.8856C11.6086 19.4217 10.7644 19.5013 10.1373 19.0752L8.84848 18.199C12.1941 14.8534 21.9854 5.06203 23.8849 3.16242ZM16.3099 2.43738C16.7481 1.99922 17.3307 1.75781 17.9504 1.75781C18.5701 1.75781 19.1528 1.99922 19.5909 2.4375L20.8575 3.70395L9.39 15.1716L8.12344 13.9049C7.21875 13.0003 7.21875 11.5284 8.12344 10.6239L16.3099 2.43738Z" fill="white"></path>
    <path d="M37.2414 7.59985H35.1994C34.7139 7.59985 34.3205 7.99325 34.3205 8.47876C34.3205 8.96427 34.7139 9.35767 35.1994 9.35767H37.2414C37.7269 9.35767 38.1203 8.96427 38.1203 8.47876C38.1203 7.99325 37.7269 7.59985 37.2414 7.59985Z" fill="white"></path>
    <path d="M37.2414 10.8279H35.1994C34.7139 10.8279 34.3205 11.2213 34.3205 11.7068C34.3205 12.1923 34.7139 12.5857 35.1994 12.5857H37.2414C37.7269 12.5857 38.1203 12.1923 38.1203 11.7068C38.1203 11.2213 37.7269 10.8279 37.2414 10.8279Z" fill="white"></path>
    <path d="M37.2414 14.0559H35.1994C34.7139 14.0559 34.3205 14.4493 34.3205 14.9348C34.3205 15.4203 34.7139 15.8137 35.1994 15.8137H37.2414C37.7269 15.8137 38.1203 15.4203 38.1203 14.9348C38.1203 14.4493 37.7269 14.0559 37.2414 14.0559Z" fill="white"></path>
    <path d="M37.2414 17.2839H35.1994C34.7139 17.2839 34.3205 17.6773 34.3205 18.1628C34.3205 18.6483 34.7139 19.0417 35.1994 19.0417H37.2414C37.7269 19.0417 38.1203 18.6483 38.1203 18.1628C38.1203 17.6773 37.7269 17.2839 37.2414 17.2839Z" fill="white"></path>
    <path d="M50.0414 13.6676C49.815 13.4212 49.4687 13.3248 49.1475 13.4187C48.8265 13.5126 48.5865 13.7805 48.5285 14.1099L48.0694 16.7189L45.8437 11.8556C45.7151 11.5746 45.4482 11.3815 45.141 11.3477C44.8338 11.314 44.5311 11.4439 44.3443 11.6902L42.5501 14.056H40.4141C39.9286 14.056 39.5352 14.4494 39.5352 14.9349C39.5352 15.4204 39.9286 15.8138 40.4141 15.8138H42.9865C43.2615 15.8138 43.5206 15.685 43.6868 15.466L44.8568 13.9233L47.6462 20.0186C47.7905 20.3341 48.1048 20.5318 48.445 20.5318C48.482 20.5318 48.5195 20.5294 48.557 20.5246C48.9388 20.4756 49.2442 20.1842 49.311 19.8051L49.951 16.1678L50.2853 16.5316C50.4785 16.7419 50.7621 16.8457 51.0455 16.8085C51.3288 16.7718 51.5767 16.5997 51.7099 16.3469L52.5933 14.6718L52.6309 15.0274C52.6781 15.4743 53.0552 15.8137 53.5049 15.8137H55.277C55.7625 15.8137 56.1559 15.4203 56.1559 14.9348C56.1559 14.4493 55.7625 14.0559 55.277 14.0559H54.2957L54.0371 11.6143C53.9964 11.2296 53.7089 10.9167 53.3291 10.8437C52.9488 10.7709 52.5661 10.9546 52.3857 11.2968L50.7364 14.4243L50.0414 13.6676Z" fill="white"></path>
    <path d="M56.7469 32.2108H27.6708C27.1853 32.2108 26.7919 32.6042 26.7919 33.0897C26.7919 33.5752 27.1853 33.9686 27.6708 33.9686H56.7469C57.5714 33.9686 58.2422 34.6394 58.2422 35.4639V36.8612H1.75781V35.4639C1.75781 34.6394 2.42859 33.9686 3.25312 33.9686H24.1567C24.6422 33.9686 25.0356 33.5752 25.0356 33.0897C25.0356 32.6042 24.6422 32.2108 24.1567 32.2108H12.3439V31.0507C12.3439 29.76 11.2939 28.71 10.0032 28.71H5.38078C4.09008 28.71 3.04008 29.76 3.04008 31.0507V32.2177C1.3452 32.3278 0 33.7418 0 35.4639V37.7401C0 38.2256 0.393398 38.619 0.878906 38.619H3.86367V39.5462C3.86367 41.1786 5.19164 42.5067 6.82406 42.5067H11.9132C12.3987 42.5067 12.7921 42.1133 12.7921 41.6278C12.7921 41.1423 12.3987 40.7489 11.9132 40.7489H6.82395C6.1609 40.7489 5.62137 40.2093 5.62137 39.5462V38.619H54.3786V39.5462C54.3786 40.2093 53.8391 40.7489 53.1759 40.7489C49.1985 40.7489 20.2637 40.7489 15.4271 40.7489C14.9416 40.7489 14.5482 41.1423 14.5482 41.6278C14.5482 42.1133 14.9416 42.5067 15.4271 42.5067H21.8618L25.5536 44.8486L21.8101 46.2437C21.4662 46.3719 21.2381 46.7002 21.2381 47.0672V49.675H13.8318C12.5795 49.675 11.5608 50.6938 11.5608 51.946V54.4367C10.4175 54.8081 9.58875 55.8836 9.58875 57.1491C9.58875 58.7212 10.8676 60.0001 12.4397 60.0001C14.0118 60.0001 15.2907 58.7212 15.2907 57.1491C15.2907 55.8836 14.4619 54.8081 13.3186 54.4367V51.946C13.3186 51.663 13.5487 51.4329 13.8318 51.4329H44.3674C44.6503 51.4329 44.8806 51.663 44.8806 51.946V54.4367C43.7373 54.8081 42.9086 55.8836 42.9086 57.1491C42.9086 58.7212 44.1874 60.0001 45.7595 60.0001C47.3316 60.0001 48.6105 58.7212 48.6105 57.1491C48.6105 55.8836 47.7817 54.8081 46.6384 54.4367V51.946C46.6384 50.6938 45.6197 49.675 44.3674 49.675H36.4436L29.4833 45.2598L36.8705 42.5066H53.1758C54.8082 42.5066 56.1363 41.1785 56.1363 39.5461V38.6189H59.1211C59.6066 38.6189 60 38.2255 60 37.74V35.4638C60 33.6702 58.5407 32.2108 56.7469 32.2108ZM4.79789 31.0507C4.79789 30.7293 5.05934 30.4678 5.38078 30.4678H10.0032C10.3246 30.4678 10.5861 30.7292 10.5861 31.0507V32.2108H4.79789V31.0507ZM12.4397 58.2423C11.8369 58.2423 11.3466 57.7518 11.3466 57.1491C11.3466 56.5494 11.8321 56.0609 12.4307 56.0561C12.4337 56.0561 12.4366 56.0563 12.4397 56.0563C12.4427 56.0563 12.4458 56.0561 12.4487 56.0561C13.0474 56.0611 13.5329 56.5494 13.5329 57.1491C13.5329 57.7518 13.0426 58.2423 12.4397 58.2423ZM45.7595 58.2423C45.1567 58.2423 44.6664 57.7518 44.6664 57.1491C44.6664 56.5494 45.1519 56.0609 45.7505 56.0561C45.7535 56.0561 45.7564 56.0563 45.7595 56.0563C45.7625 56.0563 45.7656 56.0561 45.7685 56.0561C46.3672 56.0611 46.8527 56.5494 46.8527 57.1491C46.8529 57.7518 46.3624 58.2423 45.7595 58.2423ZM33.1622 49.6752H22.9961V47.6777L27.4164 46.0303L33.1622 49.6752ZM27.6207 44.0782L25.1434 42.5066H31.8375L27.6207 44.0782Z" fill="white"></path>
    <path d="M57.8501 4.4231H53.518C53.0325 4.4231 52.6391 4.81649 52.6391 5.302C52.6391 5.78751 53.0325 6.18091 53.518 6.18091H57.8501C58.0663 6.18091 58.2422 6.35681 58.2422 6.57302V22.7338C58.2422 22.9501 58.0663 23.126 57.8501 23.126H32.9555C32.7391 23.126 32.5632 22.9501 32.5632 22.7338V6.57302C32.5632 6.35681 32.7391 6.18091 32.9555 6.18091H50.0039C50.4894 6.18091 50.8828 5.78751 50.8828 5.302C50.8828 4.81649 50.4894 4.4231 50.0039 4.4231H32.9555C31.77 4.4231 30.8054 5.38743 30.8054 6.57302V22.7338C30.8054 23.9192 31.7699 24.8838 32.9555 24.8838H57.8502C59.0357 24.8838 60.0001 23.9193 60.0001 22.7338V6.57302C60 5.38755 59.0357 4.4231 57.8501 4.4231Z" fill="white"></path>
    </g>
    <defs>
    <clipPath id="clip0_230_2758">
    <rect width="60" height="60" fill="white"></rect>
    </clipPath>
    </defs>
</svg>