<svg id="&#x421;&#x43B;&#x43E;&#x439;_1" enable-background="new 0 0 100 100" height="100" viewBox="0 0 100 100" width="100" xmlns="http://www.w3.org/2000/svg"><path d="m50 0c-27.57 0-50 22.43-50 50s22.43 50 50 50 50-22.43 50-50-22.43-50-50-50zm0 95c-24.813 0-45-20.187-45-45 0-12.536 5.158-23.886 13.456-32.054.627 5.131 3.317 13.158 13.159 19.842 1.257.854 2.433 2.799 3.266 4.825-2.049-.778-4.174-.91-6.273-.339-1.988.541-3.799 1.685-5.318 3.075-1.49-.825-3.297-1.062-5.123-.609-2.771.686-4.964 2.795-5.722 5.503-.884 3.154-.315 6.677 1.521 9.426 1.209 1.811 3.457 4.01 7.482 5.052-.074.482-.127.952-.156 1.402-.788 12.405 4.708 20.422 15.476 22.573 1.845.369 3.739.541 5.654.541 13.043-.001 26.988-8.002 31.761-16.498 5.519-9.83 4.441-13.851 2.598-17.74-.32-.675-.581-1.225-.705-1.768.27-.531 1.29-1.637 2.052-2.46 2.619-2.835 6.578-7.12 6.888-13.426.366-7.517-3.101-14.778-8.832-18.499-5.287-3.431-11.901-3.449-18.628-.049-4.248 2.147-7.139 5.538-8.593 10.078-1.682 5.253-1.078 10.994-.063 15.303-2.626.413-5.395 1.647-7.804 3.488.021-4.025-2.57-11.229-6.671-14.014-12.165-8.262-11.237-18.575-11.063-19.892 7.464-5.501 16.676-8.76 26.638-8.76 24.813 0 45 20.187 45 45s-20.187 45-45 45zm1.036-44.476c.38.726.811 1.335 1.27 1.862-3.199 1.225-6.608 2.939-8.023 5.042-.771 1.145-.468 2.698.678 3.47.428.288.914.426 1.394.426.804 0 1.594-.387 2.076-1.104.993-1.475 6.599-3.733 11.21-4.916.677-.174 1.216-.609 1.541-1.17.455-.577.661-1.343.479-2.114-.316-1.344-1.661-2.181-3.006-1.861-.021.003-1.945.424-3.189-1.954-.718-1.369-4.089-10.47-1.74-17.805 1.045-3.263 3.036-5.598 6.087-7.141 5.144-2.6 9.863-2.677 13.649-.219 4.201 2.727 6.838 8.378 6.561 14.061-.221 4.491-3.185 7.699-5.566 10.277-2.007 2.172-3.74 4.048-3.359 6.425.211 1.321.719 2.393 1.167 3.338 1.112 2.348 2.264 4.774-2.438 13.15-4.003 7.127-18.834 16.141-32.076 13.503-8.234-1.646-12.092-7.484-11.465-17.354.176-2.761 1.679-6.816 3.497-9.433.788-1.135.507-2.692-.627-3.479-1.134-.79-2.691-.507-3.479.626-1.146 1.65-2.158 3.67-2.925 5.73-2.071-.532-3.658-1.546-4.625-2.993-1.221-1.827-1.247-3.935-.864-5.3.328-1.17 1.305-1.8 2.11-1.999.11-.027.326-.07.583-.075-.233.413-.439.82-.612 1.216-.555 1.265.021 2.739 1.286 3.293 1.265.556 2.739-.021 3.293-1.285.772-1.76 3.084-4.849 6-5.642 1.645-.447 3.253-.078 4.921 1.128.714.517 2.543 1.855.162 6.982-.036.075-.073.148-.108.225-.094.196-.18.386-.286.593-.083.162-.144.329-.189.498-.922 2.281-1.595 4.992-1.808 8.198-.242 3.65 1.356 5.53 2.741 6.465 1.371.926 3.122 1.281 5.004 1.281 5.46 0 12.027-2.995 13.645-3.775 1.243-.6 1.765-2.094 1.166-3.337-.599-1.242-2.091-1.765-3.337-1.167-4.385 2.108-11.579 4.273-13.682 2.854-.161-.109-.651-.44-.548-1.99.457-6.885 3.452-10.822 5.884-12.913 2.499-2.147 5.101-2.982 6.904-3.097.251.65.48 1.167.644 1.48z"/></svg>