<?xml version="1.0" encoding="UTF-8"?>
<svg xmlns="http://www.w3.org/2000/svg" xmlns:xlink="http://www.w3.org/1999/xlink" version="1.1" id="Capa_1" x="0px" y="0px" viewBox="0 0 512 512" style="enable-background:new 0 0 512 512;" xml:space="preserve" width="512" height="512">
<g>
	<g>
		<path style="fill:none;stroke:#000000;stroke-width:15;stroke-linecap:round;stroke-linejoin:round;stroke-miterlimit:10;" d="&#10;&#9;&#9;&#9;M30.04,292.55c-10.27-13.1-15.07-28.69-12.8-46.9c4.96-39.78,32.89-57.95,64.05-61.48"/>
		<path style="fill:none;stroke:#000000;stroke-width:15;stroke-linecap:round;stroke-linejoin:round;stroke-miterlimit:10;" d="&#10;&#9;&#9;&#9;M187.597,271.565c14.313-12.421,25.912-32.148,20.609-62.788c-11.739-67.828-106.307-96.524-106.307-96.524&#10;&#9;&#9;&#9;s39.132-31.305,18.261-51.523s-80.872,45.001-80.22,62.61s46.306,71.741,73.698,88.698"/>
		<path style="fill:none;stroke:#000000;stroke-width:15;stroke-linecap:round;stroke-linejoin:round;stroke-miterlimit:10;" d="&#10;&#9;&#9;&#9;M331.01,252.46c0,0-35.62-17-51.93-24.18c0,0,37.69-41.67,45.58-44.64c7.9-2.97,18.34-27.75,18.34-27.75l-5.27-9.87&#10;&#9;&#9;&#9;c-3.01-5.66-9.7-8.26-15.75-6.14c-26.08,9.15-92.25,34.8-105.09,63.53c-16.07,35.96-9.42,80.96,55.79,97.27&#10;&#9;&#9;&#9;c16.16,4.04,29,5.95,39.19,6.36"/>
		<path style="fill:none;stroke:#000000;stroke-width:15;stroke-linecap:round;stroke-linejoin:round;stroke-miterlimit:10;" d="&#10;&#9;&#9;&#9;M401.486,189.22c0,0,1.117-11.077-6.69-17.349"/>
		<path style="fill:none;stroke:#000000;stroke-width:15;stroke-linecap:round;stroke-linejoin:round;stroke-miterlimit:10;" d="&#10;&#9;&#9;&#9;M477.381,168.029c0,0-31.475-37.955-3.268-57.76"/>
	</g>
	<path style="fill:none;stroke:#000000;stroke-width:15;stroke-linecap:round;stroke-linejoin:round;stroke-miterlimit:10;" d="&#10;&#9;&#9;M137.961,367.835l-19.303,53.337c-5.976,16.511,6.256,33.946,23.815,33.946h227.052c17.559,0,29.791-17.434,23.815-33.946&#10;&#9;&#9;l-19.303-53.337"/>
	<path style="fill:none;stroke:#000000;stroke-width:15;stroke-linecap:round;stroke-linejoin:round;stroke-miterlimit:10;" d="&#10;&#9;&#9;M202.383,411.474L202.383,411.474c0,7.222,5.854,13.076,13.076,13.076h81.083c7.222,0,13.076-5.854,13.076-13.076v0&#10;&#9;&#9;c0-7.222-5.854-13.076-13.076-13.076h-81.083C208.237,398.399,202.383,404.253,202.383,411.474z"/>
	<path style="fill:none;stroke:#000000;stroke-width:15;stroke-linecap:round;stroke-linejoin:round;stroke-miterlimit:10;" d="&#10;&#9;&#9;M137.961,367.835H84.449c-8.982,0-17.794-2.454-25.484-7.097l-40.389-24.386c-16.565-10.001-14.047-34.761,4.192-41.224&#10;&#9;&#9;l39.321-13.933c12.415-4.399,26.004-3.992,38.182,1.027c25.026,10.316,76.804,26.824,155.73,29.087&#10;&#9;&#9;c78.926-2.263,130.704-18.771,155.73-29.087c12.177-5.02,25.767-5.426,38.182-1.027l39.321,13.933&#10;&#9;&#9;c18.239,6.463,20.756,31.222,4.192,41.224l-40.389,24.386c-7.69,4.643-16.501,7.097-25.484,7.097H173.159"/>
	<path style="fill:none;stroke:#000000;stroke-width:15;stroke-linecap:round;stroke-linejoin:round;stroke-miterlimit:10;" d="&#10;&#9;&#9;M202.383,411.474L202.383,411.474c0,7.222,5.854,13.076,13.076,13.076h81.083c7.222,0,13.076-5.854,13.076-13.076v0&#10;&#9;&#9;c0-7.222-5.854-13.076-13.076-13.076h-81.083C208.237,398.399,202.383,404.253,202.383,411.474z"/>
	<path style="fill:none;stroke:#000000;stroke-width:15;stroke-linecap:round;stroke-linejoin:round;stroke-miterlimit:10;" d="&#10;&#9;&#9;M362.415,274.479c0,0,11.209,12.403,25.039,16.474"/>
	<path style="fill:none;stroke:#000000;stroke-width:15;stroke-linecap:round;stroke-linejoin:round;stroke-miterlimit:10;" d="&#10;&#9;&#9;M211.05,221.32c-0.52-0.08-1.04-0.16-1.57-0.25"/>
	<path style="fill:none;stroke:#000000;stroke-width:15;stroke-linecap:round;stroke-linejoin:round;stroke-miterlimit:10;" d="&#10;&#9;&#9;M30.04,292.55c-10.27-13.1-15.07-28.69-12.8-46.9c4.87-39.14,32.48-58.28,63.16-62.42"/>
	<path style="fill:none;stroke:#000000;stroke-width:15;stroke-linecap:round;stroke-linejoin:round;stroke-miterlimit:10;" d="&#10;&#9;&#9;M372.39,136.584c8.752-1.443,18.731-2.024,29.94-2.024c51.35,0,92.99,34.5,92.99,85.86c0,26.23-10.86,49.93-28.34,66.83"/>
	<path style="fill:none;stroke:#000000;stroke-width:15;stroke-linecap:round;stroke-linejoin:round;stroke-miterlimit:10;" d="&#10;&#9;&#9;M286.62,220.07h0.01c10.83-0.24,34.42-0.97,43.52-2.02c-0.64-4.42-4.73-15.33-4.73-19.94c0-5.58,0.3-10.69,0.91-15.38"/>
</g>















</svg>
