<svg id="Layer_1" viewBox="0 0 512 512" xmlns="http://www.w3.org/2000/svg" data-name="Layer 1"><path d="m495.316 152.859c-20.381-59.669-67.472-104.565-119.97-114.38-44.829-8.38-88.729 9.288-123.944 49.794-36.704-1.889-59.103-27.618-68.423-78.534-.349-1.903-1.469-3.576-3.095-4.624s-3.611-1.375-5.489-.907l-53.2 13.3c-3.248.812-5.466 3.811-5.292 7.155 1.978 38.019 15.462 73.521 37.97 99.965 22.685 26.653 52.762 42.773 87.28 46.857 2.411 18.138 12.091 34.541 26.84 45.418-.889 4.08-1.467 8.205-1.737 12.356l-212.571-122.726c-11.432-6.596-26.094-2.667-32.691 8.76s-2.667 26.092 8.761 32.691l132.142 76.292.5 8.226c.562 9.261 5.494 17.233 13.528 21.872l64.826 37.427c-1.816 3.933-3.133 8.075-3.911 12.337-24.964-4.693-50.443.667-75.918 15.987-32.93-23.304-69.589-28.591-101.23-14.428-29.954 13.408-50.95 42.464-53.488 74.023-2.518 31.3 12.696 59.446 42.839 79.254 2.31 1.519 4.64 3.013 6.956 4.499 17.978 11.53 33.504 21.487 33.948 37.719.104 3.79 3.206 6.809 6.997 6.809h48.747c3.866 0 7-3.134 7-7 0-48.19-36.657-71.265-60.913-86.533-2.906-1.83-5.652-3.558-8.187-5.227-10.777-7.099-15.473-14.694-12.254-19.822 3.081-4.91 13.337-8.198 23.041-2.399 1.291.771 2.61 1.599 3.972 2.452 12.264 7.688 28.89 18.111 57.24 10.85 37.157 26.564 81.32 40.65 126.619 40.648 7.521 0 15.083-.389 22.64-1.173 54.205-5.626 104.02-31.136 140.268-71.83 29.952-33.625 49.137-70.735 57.021-110.297 6.985-35.052 4.627-71.294-6.821-104.808zm-462.199-30.567c1.838-3.183 5.183-4.963 8.618-4.963 1.684 0 3.39.428 4.949 1.328l112.749 65.095 1.444 23.769-124.123-71.663c-4.742-2.739-6.374-8.825-3.637-13.567zm143.253 109.36-.729-11.982s0 0 0 0l-1.672-27.524 109.383 63.152c18.462 11.214 28.615 26.294 30.248 44.89-13.972 2.393-26.162 2.404-42.712-7.151l-87.965-50.787c-4.007-2.313-6.273-5.978-6.554-10.597zm258.292 127.001c-56.035 62.905-141.691 83.555-217.326 57.854l3.646-.183c3.86-.193 6.834-3.48 6.641-7.341s-3.474-6.822-7.342-6.641l-20.224 1.013c-2.543.127-4.695 1.602-5.816 3.695-11.43-5.522-22.516-12.183-33.105-20.005-1.768-1.305-4.043-1.704-6.147-1.081-24.362 7.219-37.56-1.057-49.204-8.355-1.448-.908-2.853-1.788-4.226-2.608-16.404-9.801-35.002-4.306-42.08 6.974-6.043 9.626-4.904 24.916 16.41 38.957 2.655 1.749 5.46 3.515 8.43 5.384 22.782 14.34 50.804 31.978 54.059 67.685h-35.203c-3.933-19.423-22.045-31.041-39.618-42.312-2.274-1.458-4.56-2.924-6.826-4.414-25.673-16.871-38.661-40.464-36.573-66.433 2.135-26.537 19.898-51.017 45.254-62.367 16.508-7.39 50.276-15.181 90.962 15.671 2.341 1.776 5.545 1.899 8.017.309 26.452-17.018 51.555-21.913 76.75-14.96 2.085.576 4.325.154 6.059-1.146 1.734-1.298 2.769-3.326 2.803-5.492.076-4.846 1.101-9.589 2.959-14.006l10.93 6.31c13.575 7.837 25.073 10.363 35.988 10.363 7.558 0 14.836-1.211 22.329-2.708 3.261-.652 5.612-3.507 5.628-6.833.082-18.238-6.319-43.919-37.287-62.695-.043-.026-.086-.051-.129-.076l-10.288-5.94c-.266-7.263.59-14.481 2.568-21.507.843-2.992-.388-6.181-3.022-7.83-14.964-9.371-24.335-25.497-25.066-43.138-.147-3.542-2.919-6.415-6.453-6.689-64.079-4.965-111.883-57.435-117.883-128.437l40.395-10.099c11.814 54.364 39.974 82.214 83.775 82.805h.095c2.065 0 4.028-.913 5.359-2.497 32.188-38.311 72.272-55.233 112.876-47.64 1.416.265 2.827.562 4.234.884.132.994.472 1.976 1.053 2.874l10.99 17.008c1.339 2.073 3.589 3.202 5.886 3.202 1.301 0 2.618-.362 3.792-1.121 3.247-2.098 4.179-6.431 2.08-9.678l-3.634-5.624c37.456 16.208 69.395 52.227 84.893 97.6 23.23 68.008 5.951 141.368-47.405 201.269zm-149.681 35.292c1.187 3.68-.835 7.624-4.515 8.81l-19.272 6.213c-.714.23-1.438.34-2.149.34-2.956 0-5.704-1.889-6.66-4.854-1.187-3.68.835-7.624 4.515-8.81l19.272-6.213c3.68-1.183 7.623.834 8.81 4.514zm51.512-29.371c2.099 3.247 1.167 7.58-2.08 9.678l-17.008 10.989c-1.174.759-2.491 1.121-3.792 1.121-2.297 0-4.547-1.129-5.887-3.202-2.098-3.247-1.166-7.58 2.081-9.678l17.008-10.989c3.246-2.098 7.58-1.166 9.678 2.081zm68.504-257.933c-1.187-3.679.835-7.624 4.515-8.81s7.623.834 8.81 4.515l6.213 19.273c1.187 3.679-.835 7.624-4.515 8.81-.714.23-1.438.34-2.149.34-2.956 0-5.704-1.889-6.66-4.854l-6.213-19.273zm26.895 55.19 1.013 20.224c.193 3.861-2.78 7.148-6.642 7.341-.118.006-.237.009-.355.009-3.705 0-6.798-2.908-6.985-6.65l-1.013-20.224c-.193-3.861 2.78-7.148 6.642-7.341 3.842-.182 7.147 2.78 7.341 6.641zm-2.289 60.97-4.256 19.797c-.706 3.284-3.609 5.53-6.837 5.53-.487 0-.982-.051-1.478-.158-3.78-.812-6.186-4.535-5.373-8.315l4.256-19.797c.812-3.779 4.541-6.185 8.314-5.373 3.78.812 6.186 4.535 5.373 8.315zm-50.955 100.07c2.867 2.594 3.089 7.02.496 9.887l-13.584 15.018c-1.382 1.527-3.284 2.304-5.193 2.304-1.675 0-3.354-.597-4.693-1.809-2.867-2.594-3.089-7.02-.496-9.887l13.584-15.018c2.595-2.867 7.021-3.088 9.887-.496zm32.963-41.77-9.234 18.021c-1.239 2.419-3.692 3.81-6.235 3.81-1.074 0-2.164-.248-3.187-.772-3.44-1.763-4.8-5.981-3.037-9.421l9.234-18.021c1.763-3.44 5.98-4.801 9.422-3.038 3.44 1.763 4.8 5.981 3.037 9.421z"/></svg>