<svg id="Слой_1" height="512" viewBox="0 0 516.75 592.08" width="512" xmlns="http://www.w3.org/2000/svg" data-name="Слой 1"><g transform="translate(-207.15 10.34)"><path d="m326.43 448.58a64.44 64.44 0 0 1 -21.43-125.22 18.43 18.43 0 0 0 12.12-17.46 18.75 18.75 0 0 0 -13.35-17.9 44.66 44.66 0 0 1 -30.38-30.4 45.63 45.63 0 0 1 9.33-42.87l8.24-9.51a35 35 0 0 0 8.55-22.91v-13.79a112.76 112.76 0 0 1 187.32-85 115.27 115.27 0 0 1 37.68 69.33 15 15 0 1 1 -29.67 4.43c-6.11-41-41.43-71.91-82.15-71.93a83.14 83.14 0 0 0 -83.18 83.14v13.81a65 65 0 0 1 -15.87 42.55l-8.24 9.52a15.73 15.73 0 0 0 -3.22 14.78 14.81 14.81 0 0 0 10.06 10.07 48.63 48.63 0 0 1 2.75 92.4 34.45 34.45 0 0 0 11.44 66.93 15 15 0 0 1 0 30z"/><path d="m322.12 581.74a115.11 115.11 0 0 1 -115-115 15 15 0 0 1 30 0 85.07 85.07 0 0 0 85 85c33 0 62.39-19.7 78.65-52.69l40.72-82.6a15 15 0 0 1 26.91 13.26l-40.72 82.6c-21.11 42.82-61.56 69.43-105.56 69.43z"/><path d="m576.28 197.52h-.58a15 15 0 0 1 -14.42-15.52c.15-3.94.23-7.93.23-11.86 0-82.91-66.75-150.39-148.79-150.43h-.07a148.84 148.84 0 0 0 -148.86 148.81 15 15 0 0 1 -30 0 178.85 178.85 0 0 1 178.85-178.86h.1c98.57.05 178.77 81 178.77 180.43 0 4.31-.09 8.68-.25 13a15 15 0 0 1 -14.98 14.43z"/><path d="m674.59 437h-95.07c-1.93 0-45.41-.5-71.14-42.58l-122.69-28.51a15 15 0 0 1 -11.6-14.61v-41a15 15 0 0 1 11.6-14.62l122.69-28.53c25.73-42.08 69.21-42.58 71.14-42.58h95.07a49.37 49.37 0 0 1 49.31 49.31v113.8a49.37 49.37 0 0 1 -49.31 49.32zm-95-30h95a19.33 19.33 0 0 0 19.31-19.31v-113.78a19.33 19.33 0 0 0 -19.31-19.31h-95c-1.72 0-31.77 1.16-48.11 32.62a15 15 0 0 1 -9.91 7.69l-117.5 27.33v17.14l117.5 27.33a15 15 0 0 1 9.91 7.7c16.36 31.45 46.41 32.59 48.13 32.59z"/><path d="m568.17 581.74c-.39 0-.79 0-1.19 0a15 15 0 0 1 -13.78-16.13l11.36-144.71a15 15 0 1 1 29.91 2.35l-11.36 144.66a15 15 0 0 1 -14.94 13.83z"/><path d="m651.08 581.74a15 15 0 0 1 -15-14.42l-5.68-144.71a15 15 0 0 1 14.42-15.61h.6a15 15 0 0 1 15 14.42l5.68 144.71a15 15 0 0 1 -14.4 15.57z"/><path d="m645.41 437a15 15 0 0 1 -15-15v-182.4a15 15 0 0 1 30 0v182.4a15 15 0 0 1 -15 15z"/></g></svg>