<svg height="512" viewBox="0 0 128 128" width="512" xmlns="http://www.w3.org/2000/svg"><path d="m119.165 53.571a16.963 16.963 0 0 0 0-20.859 17.015 17.015 0 0 0 -23.877-23.878 16.966 16.966 0 0 0 -20.858 0 16.968 16.968 0 0 0 -20.86 0 16.966 16.966 0 0 0 -20.858 0 17.015 17.015 0 0 0 -23.877 23.878 16.963 16.963 0 0 0 0 20.859 16.964 16.964 0 0 0 0 20.858 16.914 16.914 0 0 0 -3.583 10.713 17.259 17.259 0 0 0 16.248 16.731 17.016 17.016 0 0 0 14.23-27.444 16.962 16.962 0 0 0 0-20.858 16.936 16.936 0 0 0 3-14.844 16.936 16.936 0 0 0 14.843-3 16.968 16.968 0 0 0 20.86 0 16.934 16.934 0 0 0 14.842 3 16.946 16.946 0 0 0 3 14.844 16.944 16.944 0 0 0 -3 14.843 16.935 16.935 0 0 0 -14.841 3 16.844 16.844 0 0 0 -11.834-3.531 17.186 17.186 0 0 0 -15.547 15.257 16.871 16.871 0 0 0 5.763 14.551 11.358 11.358 0 0 1 3.863 7.281 75.889 75.889 0 0 1 .495 8.634v7.394a1.75 1.75 0 0 0 1.75 1.75h10.152a1.75 1.75 0 0 0 1.75-1.75v-7.394a75.858 75.858 0 0 1 .5-8.633 11.262 11.262 0 0 1 3.171-6.618 16.965 16.965 0 0 0 20.8-.048 17.014 17.014 0 0 0 23.868-23.877 16.963 16.963 0 0 0 0-20.859zm-2.47 18.3a17.081 17.081 0 0 0 -10.963-4.017 1.75 1.75 0 0 0 0 3.5 13.385 13.385 0 0 1 9.831 4.243c.01.01.016.023.026.033a13.516 13.516 0 0 1 -19.106 19.1 1.747 1.747 0 0 0 -2.39 0 13.475 13.475 0 0 1 -18.467 0 1.753 1.753 0 0 0 -2.39 0l-.8.746a14.764 14.764 0 0 0 -4.591 9.1 79.222 79.222 0 0 0 -.519 9.034v5.644h-6.652v-5.644a79.322 79.322 0 0 0 -.523-9.067 14.825 14.825 0 0 0 -5.036-9.488 13.418 13.418 0 0 1 -4.58-11.569 13.646 13.646 0 0 1 12.342-12.11 13.4 13.4 0 0 1 10.329 3.592c.009.008.015.019.024.027a13.389 13.389 0 0 1 4.288 9.875 1.75 1.75 0 1 0 3.5 0 17.079 17.079 0 0 0 -4.033-10.98 13.415 13.415 0 0 1 14.629-.74 1.75 1.75 0 0 0 2.391-2.391 13.462 13.462 0 0 1 1.841-15.988 1.751 1.751 0 0 0 0-2.392 13.461 13.461 0 0 1 -1.842-15.988 1.751 1.751 0 0 0 -2.391-2.392 13.462 13.462 0 0 1 -15.988-1.841 1.75 1.75 0 0 0 -2.392 0 13.476 13.476 0 0 1 -18.468 0 1.75 1.75 0 0 0 -2.392 0 13.462 13.462 0 0 1 -15.988 1.841 1.75 1.75 0 0 0 -2.391 2.392 13.461 13.461 0 0 1 -1.842 15.988 1.751 1.751 0 0 0 0 2.392 13.435 13.435 0 0 1 1.095 17.115 17.079 17.079 0 0 0 -10.981-4.033 1.75 1.75 0 0 0 0 3.5 13.387 13.387 0 0 1 9.874 4.286c.025.027.055.046.081.071a13.519 13.519 0 0 1 -10.567 22.667 13.71 13.71 0 0 1 -12.9-13.293 13.458 13.458 0 0 1 3.659-9.459 1.75 1.75 0 0 0 0-2.392 13.473 13.473 0 0 1 0-18.466 1.751 1.751 0 0 0 0-2.392 13.435 13.435 0 0 1 -1.1-17.1 17.086 17.086 0 0 0 10.96 4.015 1.75 1.75 0 0 0 0-3.5 13.387 13.387 0 0 1 -9.854-4.265 13.516 13.516 0 0 1 19.1-19.1 1.749 1.749 0 0 0 2.391 0 13.475 13.475 0 0 1 18.467 0 1.75 1.75 0 0 0 2.392 0 13.476 13.476 0 0 1 18.468 0 1.75 1.75 0 0 0 2.392 0 13.435 13.435 0 0 1 17.1-1.1 17.086 17.086 0 0 0 -4.015 10.96 1.75 1.75 0 0 0 3.5 0 13.4 13.4 0 0 1 4.258-9.849l.011-.008a13.516 13.516 0 0 1 19.105 19.1 1.75 1.75 0 0 0 0 2.392 13.473 13.473 0 0 1 0 18.467 1.751 1.751 0 0 0 0 2.392 13.434 13.434 0 0 1 1.106 17.1z"/></svg>